<svg width="48" height="48" viewBox="0 0 48 48" fill="none" xmlns="http://www.w3.org/2000/svg" xmlns:xlink="http://www.w3.org/1999/xlink">
<path d="M6,10.5L6,9C5.172,9 4.5,9.672 4.5,10.5L6,10.5ZM42,10.5L43.5,10.5C43.5,9.672 42.828,9 42,9L42,10.5ZM6,12L42,12L42,9L6,9L6,12ZM40.5,10.5L40.5,36L43.5,36L43.5,10.5L40.5,10.5ZM40.5,36L40.5,36L42.621,38.121C43.184,37.559 43.5,36.796 43.5,36L40.5,36ZM40.5,36L40.5,36L40.5,39C41.296,39 42.059,38.684 42.621,38.121L40.5,36ZM40.5,36L7.5,36L7.5,39L40.5,39L40.5,36ZM7.5,36L7.5,36L5.379,38.121C5.941,38.684 6.704,39 7.5,39L7.5,36ZM7.5,36L7.5,36L4.5,36C4.5,36.796 4.816,37.559 5.379,38.121L7.5,36ZM7.5,36L7.5,10.5L4.5,10.5L4.5,36L7.5,36Z" fill="#000000"/>
<path d="M43.014,11.606C43.624,11.046 43.666,10.097 43.106,9.486C42.546,8.876 41.597,8.834 40.986,9.394L43.014,11.606ZM24,27L22.986,28.106C23.56,28.631 24.44,28.631 25.014,28.106L24,27ZM7.014,9.394C6.403,8.834 5.454,8.876 4.894,9.486C4.334,10.097 4.376,11.046 4.986,11.606L7.014,9.394ZM40.986,9.394L22.986,25.894L25.014,28.106L43.014,11.606L40.986,9.394ZM25.014,25.894L7.014,9.394L4.986,11.606L22.986,28.106L25.014,25.894Z" fill="#000000"/>
</svg>
