<svg width="80" height="80" viewBox="0 0 80 80" fill="none" xmlns="http://www.w3.org/2000/svg" xmlns:xlink="http://www.w3.org/1999/xlink">
<path d="M78.4,40.909C78.4,38.073 78.145,35.345 77.673,32.727L40,32.727L40,48.2L61.527,48.2C60.6,53.2 57.782,57.436 53.545,60.273L53.545,70.309L66.473,70.309C74.036,63.345 78.4,53.091 78.4,40.909Z" clip-rule="evenodd" fill-rule="evenodd" fill="#4285F4"/>
<path d="M40,80C50.8,80 59.855,76.418 66.473,70.309L53.546,60.273C49.964,62.673 45.382,64.091 40,64.091C29.582,64.091 20.764,57.055 17.618,47.6L4.255,47.6L4.255,57.964C10.836,71.036 24.364,80 40,80Z" clip-rule="evenodd" fill-rule="evenodd" fill="#34A853"/>
<path d="M17.618,47.6C16.818,45.2 16.364,42.636 16.364,40C16.364,37.364 16.818,34.8 17.618,32.4L17.618,22.036L4.255,22.036C1.545,27.436 0,33.545 0,40C0,46.455 1.545,52.564 4.255,57.964L17.618,47.6Z" clip-rule="evenodd" fill-rule="evenodd" fill="#FBBC05"/>
<path d="M40,15.909C45.873,15.909 51.146,17.927 55.291,21.891L66.764,10.418C59.836,3.964 50.782,0 40,0C24.364,0 10.836,8.964 4.255,22.036L17.618,32.4C20.764,22.945 29.582,15.909 40,15.909Z" clip-rule="evenodd" fill-rule="evenodd" fill="#EA4335"/>
</svg>
