<svg width="128" height="128" viewBox="0 0 128 128" fill="none" xmlns="http://www.w3.org/2000/svg" xmlns:xlink="http://www.w3.org/1999/xlink">
<path d="M20,18L108,18L108,14L20,14L20,18ZM110,20L110,108L114,108L114,20L110,20ZM108,110L20,110L20,114L108,114L108,110ZM18,108L18,20L14,20L14,108L18,108ZM20,110C18.895,110 18,109.105 18,108L14,108C14,111.314 16.686,114 20,114L20,110ZM110,108C110,109.105 109.105,110 108,110L108,114C111.314,114 114,111.314 114,108L110,108ZM108,18C109.105,18 110,18.895 110,20L114,20C114,16.686 111.314,14 108,14L108,18ZM20,14C16.686,14 14,16.686 14,20L18,20C18,18.895 18.895,18 20,18L20,14Z" fill="#ACCCF8"/>
<path d="M45.333,55.333C50.856,55.333 55.333,50.856 55.333,45.333L51.333,45.333C51.333,48.647 48.647,51.333 45.333,51.333L45.333,55.333ZM55.333,45.333C55.333,39.81 50.856,35.333 45.333,35.333L45.333,39.333C48.647,39.333 51.333,42.02 51.333,45.333L55.333,45.333ZM45.333,35.333C39.811,35.333 35.333,39.81 35.333,45.333L39.333,45.333C39.333,42.02 42.02,39.333 45.333,39.333L45.333,35.333ZM35.333,45.333C35.333,50.856 39.811,55.333 45.333,55.333L45.333,51.333C42.02,51.333 39.333,48.647 39.333,45.333L35.333,45.333Z" fill="#ACCCF8"/>
<path d="M110.586,81.414C111.367,82.195 112.633,82.195 113.414,81.414C114.195,80.633 114.195,79.367 113.414,78.586L110.586,81.414ZM85.333,53.333L86.747,51.919C85.966,51.138 84.7,51.138 83.919,51.919L85.333,53.333ZM25.252,110.586C24.471,111.367 24.471,112.633 25.252,113.414C26.033,114.195 27.3,114.195 28.081,113.414L25.252,110.586ZM113.414,78.586L86.747,51.919L83.919,54.748L110.586,81.414L113.414,78.586ZM83.919,51.919L25.252,110.586L28.081,113.414L86.747,54.748L83.919,51.919Z" fill="#ACCCF8"/>
</svg>
