<svg width="48" height="48" viewBox="0 0 48 48" fill="none" xmlns="http://www.w3.org/2000/svg" xmlns:xlink="http://www.w3.org/1999/xlink">
<path d="M9,18L39,18L39,15L9,15L9,18ZM39,18L42,18C42,16.343 40.657,15 39,15L39,18ZM39,18L39,39L42,39L42,18L39,18ZM39,39L39,42C40.657,42 42,40.657 42,39L39,39ZM39,39L9,39L9,42L39,42L39,39ZM9,39L6,39C6,40.657 7.343,42 9,42L9,39ZM9,39L9,18L6,18L6,39L9,39ZM9,18L9,15C7.343,15 6,16.343 6,18L9,18Z" fill="#000000"/>
<path d="M15.75,16.5C15.75,17.328 16.422,18 17.25,18C18.078,18 18.75,17.328 18.75,16.5L15.75,16.5ZM17.25,9.75L15.75,9.75L17.25,9.75ZM24,3L24,1.5L24,3ZM29.25,16.5C29.25,17.328 29.922,18 30.75,18C31.578,18 32.25,17.328 32.25,16.5L29.25,16.5ZM18.75,16.5L18.75,9.75L15.75,9.75L15.75,16.5L18.75,16.5ZM18.75,9.75C18.75,8.358 19.303,7.022 20.288,6.038L18.166,3.916C16.619,5.464 15.75,7.562 15.75,9.75L18.75,9.75ZM20.288,6.038C21.272,5.053 22.608,4.5 24,4.5L24,1.5C21.812,1.5 19.714,2.369 18.166,3.916L20.288,6.038ZM24,4.5C25.392,4.5 26.728,5.053 27.712,6.038L29.834,3.916C28.286,2.369 26.188,1.5 24,1.5L24,4.5ZM27.712,6.038C28.697,7.022 29.25,8.358 29.25,9.75L32.25,9.75C32.25,7.562 31.381,5.464 29.834,3.916L27.712,6.038ZM29.25,9.75L29.25,16.5L32.25,16.5L32.25,9.75L29.25,9.75Z" fill="#000000"/>
<path d="M24,30.75C25.243,30.75 26.25,29.743 26.25,28.5C26.25,27.257 25.243,26.25 24,26.25C22.757,26.25 21.75,27.257 21.75,28.5C21.75,29.743 22.757,30.75 24,30.75Z" fill="#000000"/>
</svg>
