<svg width="34" height="36" viewBox="0 0 34 36" fill="none" xmlns="http://www.w3.org/2000/svg" xmlns:xlink="http://www.w3.org/1999/xlink">
<path d="M24.271,27.558C21.63,29.806 18.207,31.163 14.467,31.163C6.109,31.163 -0.667,24.388 -0.667,16.03C-0.667,7.672 6.109,0.896 14.467,0.896C22.825,0.896 29.6,7.672 29.6,16.03C29.6,19.747 28.26,23.152 26.035,25.786L33.299,33.05L31.532,34.818L24.271,27.558ZM27.1,16.03C27.1,23.007 21.444,28.663 14.467,28.663C7.489,28.663 1.833,23.007 1.833,16.03C1.833,9.053 7.489,3.396 14.467,3.396C21.444,3.396 27.1,9.053 27.1,16.03Z" clip-rule="evenodd" fill-rule="evenodd" fill="#FFFFFF"/>
</svg>
