<svg width="68" height="22" viewBox="0 0 68 22" fill="none" xmlns="http://www.w3.org/2000/svg" xmlns:xlink="http://www.w3.org/1999/xlink">
<path d="M7.461,0.025L7.461,20L4.166,20L4.166,3.936L-0.715,5.59L-0.715,2.869L7.064,0.025L7.461,0.025ZM27.723,17.375L27.723,20L14.379,20L14.379,17.744L20.859,10.676C21.57,9.874 22.131,9.181 22.541,8.598C22.951,8.014 23.238,7.49 23.402,7.025C23.576,6.551 23.662,6.091 23.662,5.645C23.662,5.016 23.544,4.464 23.307,3.99C23.079,3.507 22.742,3.129 22.295,2.855C21.848,2.573 21.306,2.432 20.668,2.432C19.93,2.432 19.31,2.591 18.809,2.91C18.307,3.229 17.929,3.671 17.674,4.236C17.419,4.792 17.291,5.43 17.291,6.15L13.996,6.15C13.996,4.993 14.26,3.936 14.789,2.979C15.318,2.012 16.083,1.247 17.086,0.682C18.089,0.107 19.296,-0.18 20.709,-0.18C22.04,-0.18 23.17,0.044 24.1,0.49C25.029,0.937 25.736,1.57 26.219,2.391C26.711,3.211 26.957,4.182 26.957,5.303C26.957,5.923 26.857,6.538 26.656,7.148C26.456,7.759 26.169,8.37 25.795,8.98C25.43,9.582 24.997,10.188 24.496,10.799C23.995,11.4 23.443,12.011 22.842,12.631L18.535,17.375L27.723,17.375ZM30.525,18.359C30.525,17.849 30.699,17.421 31.045,17.074C31.391,16.719 31.861,16.541 32.453,16.541C33.055,16.541 33.524,16.719 33.861,17.074C34.208,17.421 34.381,17.849 34.381,18.359C34.381,18.87 34.208,19.298 33.861,19.645C33.524,19.991 33.055,20.164 32.453,20.164C31.861,20.164 31.391,19.991 31.045,19.645C30.699,19.298 30.525,18.87 30.525,18.359ZM30.539,6.711C30.539,6.201 30.712,5.772 31.059,5.426C31.405,5.07 31.874,4.893 32.467,4.893C33.068,4.893 33.538,5.07 33.875,5.426C34.221,5.772 34.395,6.201 34.395,6.711C34.395,7.221 34.221,7.65 33.875,7.996C33.538,8.342 33.068,8.516 32.467,8.516C31.874,8.516 31.405,8.342 31.059,7.996C30.712,7.65 30.539,7.221 30.539,6.711ZM41.545,8.557L43.514,8.557C44.279,8.557 44.913,8.424 45.414,8.16C45.925,7.896 46.303,7.531 46.549,7.066C46.795,6.602 46.918,6.068 46.918,5.467C46.918,4.838 46.804,4.3 46.576,3.854C46.357,3.398 46.02,3.047 45.564,2.801C45.118,2.555 44.548,2.432 43.856,2.432C43.272,2.432 42.744,2.55 42.27,2.787C41.805,3.015 41.436,3.343 41.162,3.771C40.889,4.191 40.752,4.692 40.752,5.275L37.443,5.275C37.443,4.218 37.721,3.279 38.277,2.459C38.833,1.639 39.59,0.996 40.547,0.531C41.513,0.057 42.598,-0.18 43.801,-0.18C45.086,-0.18 46.207,0.035 47.164,0.463C48.13,0.882 48.882,1.511 49.42,2.35C49.958,3.188 50.227,4.227 50.227,5.467C50.227,6.032 50.094,6.606 49.83,7.189C49.566,7.773 49.174,8.306 48.654,8.789C48.135,9.263 47.488,9.65 46.713,9.951C45.938,10.243 45.04,10.389 44.02,10.389L41.545,10.389L41.545,8.557ZM41.545,11.127L41.545,9.322L44.02,9.322C45.186,9.322 46.18,9.459 47,9.732C47.829,10.006 48.504,10.384 49.023,10.867C49.543,11.341 49.921,11.883 50.158,12.494C50.404,13.105 50.527,13.752 50.527,14.436C50.527,15.365 50.359,16.195 50.022,16.924C49.693,17.644 49.224,18.255 48.613,18.756C48.003,19.257 47.287,19.635 46.467,19.891C45.656,20.146 44.772,20.274 43.814,20.274C42.958,20.274 42.137,20.155 41.354,19.918C40.57,19.681 39.868,19.33 39.248,18.865C38.628,18.391 38.136,17.803 37.772,17.102C37.416,16.391 37.238,15.57 37.238,14.641L40.533,14.641C40.533,15.233 40.67,15.757 40.943,16.213C41.226,16.66 41.618,17.01 42.119,17.266C42.63,17.521 43.213,17.648 43.869,17.648C44.562,17.648 45.159,17.525 45.66,17.279C46.162,17.033 46.544,16.669 46.809,16.186C47.082,15.702 47.219,15.119 47.219,14.436C47.219,13.661 47.068,13.032 46.768,12.549C46.467,12.066 46.038,11.71 45.482,11.482C44.926,11.245 44.27,11.127 43.514,11.127L41.545,11.127ZM66.564,8.379L66.564,11.633C66.564,13.191 66.41,14.522 66.1,15.625C65.799,16.719 65.361,17.607 64.787,18.291C64.213,18.975 63.525,19.476 62.723,19.795C61.93,20.114 61.041,20.274 60.057,20.274C59.273,20.274 58.544,20.173 57.869,19.973C57.204,19.772 56.602,19.458 56.064,19.029C55.527,18.601 55.066,18.049 54.684,17.375C54.31,16.691 54.018,15.876 53.809,14.928C53.608,13.98 53.508,12.882 53.508,11.633L53.508,8.379C53.508,6.811 53.663,5.49 53.973,4.414C54.283,3.329 54.725,2.45 55.299,1.775C55.873,1.092 56.557,0.595 57.35,0.285C58.152,-0.025 59.045,-0.18 60.029,-0.18C60.822,-0.18 61.551,-0.079 62.217,0.121C62.891,0.313 63.493,0.618 64.022,1.037C64.559,1.456 65.015,2.003 65.389,2.678C65.772,3.343 66.063,4.15 66.264,5.098C66.464,6.036 66.564,7.13 66.564,8.379ZM63.27,12.098L63.27,7.887C63.27,7.094 63.224,6.396 63.133,5.795C63.042,5.184 62.905,4.669 62.723,4.25C62.55,3.822 62.331,3.475 62.066,3.211C61.802,2.937 61.501,2.742 61.164,2.623C60.827,2.495 60.449,2.432 60.029,2.432C59.519,2.432 59.063,2.532 58.662,2.732C58.261,2.924 57.924,3.234 57.65,3.662C57.377,4.09 57.167,4.656 57.022,5.357C56.885,6.05 56.816,6.893 56.816,7.887L56.816,12.098C56.816,12.9 56.862,13.606 56.953,14.217C57.044,14.827 57.181,15.352 57.363,15.789C57.546,16.217 57.764,16.573 58.02,16.855C58.284,17.129 58.585,17.329 58.922,17.457C59.268,17.585 59.647,17.648 60.057,17.648C60.576,17.648 61.037,17.548 61.438,17.348C61.839,17.147 62.176,16.828 62.449,16.391C62.723,15.944 62.928,15.365 63.064,14.654C63.201,13.943 63.27,13.091 63.27,12.098Z" fill="#000000" fill-opacity="0.7"/>
<path d="M7.461,0.025L7.461,20L4.166,20L4.166,3.936L-0.715,5.59L-0.715,2.869L7.064,0.025L7.461,0.025ZM27.723,17.375L27.723,20L14.379,20L14.379,17.744L20.859,10.676C21.57,9.874 22.131,9.181 22.541,8.598C22.951,8.014 23.238,7.49 23.402,7.025C23.576,6.551 23.662,6.091 23.662,5.645C23.662,5.016 23.544,4.464 23.307,3.99C23.079,3.507 22.742,3.129 22.295,2.855C21.848,2.573 21.306,2.432 20.668,2.432C19.93,2.432 19.31,2.591 18.809,2.91C18.307,3.229 17.929,3.671 17.674,4.236C17.419,4.792 17.291,5.43 17.291,6.15L13.996,6.15C13.996,4.993 14.26,3.936 14.789,2.979C15.318,2.012 16.083,1.247 17.086,0.682C18.089,0.107 19.296,-0.18 20.709,-0.18C22.04,-0.18 23.17,0.044 24.1,0.49C25.029,0.937 25.736,1.57 26.219,2.391C26.711,3.211 26.957,4.182 26.957,5.303C26.957,5.923 26.857,6.538 26.656,7.148C26.456,7.759 26.169,8.37 25.795,8.98C25.43,9.582 24.997,10.188 24.496,10.799C23.995,11.4 23.443,12.011 22.842,12.631L18.535,17.375L27.723,17.375ZM30.525,18.359C30.525,17.849 30.699,17.421 31.045,17.074C31.391,16.719 31.861,16.541 32.453,16.541C33.055,16.541 33.524,16.719 33.861,17.074C34.208,17.421 34.381,17.849 34.381,18.359C34.381,18.87 34.208,19.298 33.861,19.645C33.524,19.991 33.055,20.164 32.453,20.164C31.861,20.164 31.391,19.991 31.045,19.645C30.699,19.298 30.525,18.87 30.525,18.359ZM30.539,6.711C30.539,6.201 30.712,5.772 31.059,5.426C31.405,5.07 31.874,4.893 32.467,4.893C33.068,4.893 33.538,5.07 33.875,5.426C34.221,5.772 34.395,6.201 34.395,6.711C34.395,7.221 34.221,7.65 33.875,7.996C33.538,8.342 33.068,8.516 32.467,8.516C31.874,8.516 31.405,8.342 31.059,7.996C30.712,7.65 30.539,7.221 30.539,6.711ZM41.545,8.557L43.514,8.557C44.279,8.557 44.913,8.424 45.414,8.16C45.925,7.896 46.303,7.531 46.549,7.066C46.795,6.602 46.918,6.068 46.918,5.467C46.918,4.838 46.804,4.3 46.576,3.854C46.357,3.398 46.02,3.047 45.564,2.801C45.118,2.555 44.548,2.432 43.856,2.432C43.272,2.432 42.744,2.55 42.27,2.787C41.805,3.015 41.436,3.343 41.162,3.771C40.889,4.191 40.752,4.692 40.752,5.275L37.443,5.275C37.443,4.218 37.721,3.279 38.277,2.459C38.833,1.639 39.59,0.996 40.547,0.531C41.513,0.057 42.598,-0.18 43.801,-0.18C45.086,-0.18 46.207,0.035 47.164,0.463C48.13,0.882 48.882,1.511 49.42,2.35C49.958,3.188 50.227,4.227 50.227,5.467C50.227,6.032 50.094,6.606 49.83,7.189C49.566,7.773 49.174,8.306 48.654,8.789C48.135,9.263 47.488,9.65 46.713,9.951C45.938,10.243 45.04,10.389 44.02,10.389L41.545,10.389L41.545,8.557ZM41.545,11.127L41.545,9.322L44.02,9.322C45.186,9.322 46.18,9.459 47,9.732C47.829,10.006 48.504,10.384 49.023,10.867C49.543,11.341 49.921,11.883 50.158,12.494C50.404,13.105 50.527,13.752 50.527,14.436C50.527,15.365 50.359,16.195 50.022,16.924C49.693,17.644 49.224,18.255 48.613,18.756C48.003,19.257 47.287,19.635 46.467,19.891C45.656,20.146 44.772,20.274 43.814,20.274C42.958,20.274 42.137,20.155 41.354,19.918C40.57,19.681 39.868,19.33 39.248,18.865C38.628,18.391 38.136,17.803 37.772,17.102C37.416,16.391 37.238,15.57 37.238,14.641L40.533,14.641C40.533,15.233 40.67,15.757 40.943,16.213C41.226,16.66 41.618,17.01 42.119,17.266C42.63,17.521 43.213,17.648 43.869,17.648C44.562,17.648 45.159,17.525 45.66,17.279C46.162,17.033 46.544,16.669 46.809,16.186C47.082,15.702 47.219,15.119 47.219,14.436C47.219,13.661 47.068,13.032 46.768,12.549C46.467,12.066 46.038,11.71 45.482,11.482C44.926,11.245 44.27,11.127 43.514,11.127L41.545,11.127ZM66.564,8.379L66.564,11.633C66.564,13.191 66.41,14.522 66.1,15.625C65.799,16.719 65.361,17.607 64.787,18.291C64.213,18.975 63.525,19.476 62.723,19.795C61.93,20.114 61.041,20.274 60.057,20.274C59.273,20.274 58.544,20.173 57.869,19.973C57.204,19.772 56.602,19.458 56.064,19.029C55.527,18.601 55.066,18.049 54.684,17.375C54.31,16.691 54.018,15.876 53.809,14.928C53.608,13.98 53.508,12.882 53.508,11.633L53.508,8.379C53.508,6.811 53.663,5.49 53.973,4.414C54.283,3.329 54.725,2.45 55.299,1.775C55.873,1.092 56.557,0.595 57.35,0.285C58.152,-0.025 59.045,-0.18 60.029,-0.18C60.822,-0.18 61.551,-0.079 62.217,0.121C62.891,0.313 63.493,0.618 64.022,1.037C64.559,1.456 65.015,2.003 65.389,2.678C65.772,3.343 66.063,4.15 66.264,5.098C66.464,6.036 66.564,7.13 66.564,8.379ZM63.27,12.098L63.27,7.887C63.27,7.094 63.224,6.396 63.133,5.795C63.042,5.184 62.905,4.669 62.723,4.25C62.55,3.822 62.331,3.475 62.066,3.211C61.802,2.937 61.501,2.742 61.164,2.623C60.827,2.495 60.449,2.432 60.029,2.432C59.519,2.432 59.063,2.532 58.662,2.732C58.261,2.924 57.924,3.234 57.65,3.662C57.377,4.09 57.167,4.656 57.022,5.357C56.885,6.05 56.816,6.893 56.816,7.887L56.816,12.098C56.816,12.9 56.862,13.606 56.953,14.217C57.044,14.827 57.181,15.352 57.363,15.789C57.546,16.217 57.764,16.573 58.02,16.855C58.284,17.129 58.585,17.329 58.922,17.457C59.268,17.585 59.647,17.648 60.057,17.648C60.576,17.648 61.037,17.548 61.438,17.348C61.839,17.147 62.176,16.828 62.449,16.391C62.723,15.944 62.928,15.365 63.064,14.654C63.201,13.943 63.27,13.091 63.27,12.098Z" fill="#000000" fill-opacity="0.7"/>
<path d="M7.461,0.025L7.461,20L4.166,20L4.166,3.936L-0.715,5.59L-0.715,2.869L7.064,0.025L7.461,0.025ZM27.723,17.375L27.723,20L14.379,20L14.379,17.744L20.859,10.676C21.57,9.874 22.131,9.181 22.541,8.598C22.951,8.014 23.238,7.49 23.402,7.025C23.576,6.551 23.662,6.091 23.662,5.645C23.662,5.016 23.544,4.464 23.307,3.99C23.079,3.507 22.742,3.129 22.295,2.855C21.848,2.573 21.306,2.432 20.668,2.432C19.93,2.432 19.31,2.591 18.809,2.91C18.307,3.229 17.929,3.671 17.674,4.236C17.419,4.792 17.291,5.43 17.291,6.15L13.996,6.15C13.996,4.993 14.26,3.936 14.789,2.979C15.318,2.012 16.083,1.247 17.086,0.682C18.089,0.107 19.296,-0.18 20.709,-0.18C22.04,-0.18 23.17,0.044 24.1,0.49C25.029,0.937 25.736,1.57 26.219,2.391C26.711,3.211 26.957,4.182 26.957,5.303C26.957,5.923 26.857,6.538 26.656,7.148C26.456,7.759 26.169,8.37 25.795,8.98C25.43,9.582 24.997,10.188 24.496,10.799C23.995,11.4 23.443,12.011 22.842,12.631L18.535,17.375L27.723,17.375ZM30.525,18.359C30.525,17.849 30.699,17.421 31.045,17.074C31.391,16.719 31.861,16.541 32.453,16.541C33.055,16.541 33.524,16.719 33.861,17.074C34.208,17.421 34.381,17.849 34.381,18.359C34.381,18.87 34.208,19.298 33.861,19.645C33.524,19.991 33.055,20.164 32.453,20.164C31.861,20.164 31.391,19.991 31.045,19.645C30.699,19.298 30.525,18.87 30.525,18.359ZM30.539,6.711C30.539,6.201 30.712,5.772 31.059,5.426C31.405,5.07 31.874,4.893 32.467,4.893C33.068,4.893 33.538,5.07 33.875,5.426C34.221,5.772 34.395,6.201 34.395,6.711C34.395,7.221 34.221,7.65 33.875,7.996C33.538,8.342 33.068,8.516 32.467,8.516C31.874,8.516 31.405,8.342 31.059,7.996C30.712,7.65 30.539,7.221 30.539,6.711ZM41.545,8.557L43.514,8.557C44.279,8.557 44.913,8.424 45.414,8.16C45.925,7.896 46.303,7.531 46.549,7.066C46.795,6.602 46.918,6.068 46.918,5.467C46.918,4.838 46.804,4.3 46.576,3.854C46.357,3.398 46.02,3.047 45.564,2.801C45.118,2.555 44.548,2.432 43.856,2.432C43.272,2.432 42.744,2.55 42.27,2.787C41.805,3.015 41.436,3.343 41.162,3.771C40.889,4.191 40.752,4.692 40.752,5.275L37.443,5.275C37.443,4.218 37.721,3.279 38.277,2.459C38.833,1.639 39.59,0.996 40.547,0.531C41.513,0.057 42.598,-0.18 43.801,-0.18C45.086,-0.18 46.207,0.035 47.164,0.463C48.13,0.882 48.882,1.511 49.42,2.35C49.958,3.188 50.227,4.227 50.227,5.467C50.227,6.032 50.094,6.606 49.83,7.189C49.566,7.773 49.174,8.306 48.654,8.789C48.135,9.263 47.488,9.65 46.713,9.951C45.938,10.243 45.04,10.389 44.02,10.389L41.545,10.389L41.545,8.557ZM41.545,11.127L41.545,9.322L44.02,9.322C45.186,9.322 46.18,9.459 47,9.732C47.829,10.006 48.504,10.384 49.023,10.867C49.543,11.341 49.921,11.883 50.158,12.494C50.404,13.105 50.527,13.752 50.527,14.436C50.527,15.365 50.359,16.195 50.022,16.924C49.693,17.644 49.224,18.255 48.613,18.756C48.003,19.257 47.287,19.635 46.467,19.891C45.656,20.146 44.772,20.274 43.814,20.274C42.958,20.274 42.137,20.155 41.354,19.918C40.57,19.681 39.868,19.33 39.248,18.865C38.628,18.391 38.136,17.803 37.772,17.102C37.416,16.391 37.238,15.57 37.238,14.641L40.533,14.641C40.533,15.233 40.67,15.757 40.943,16.213C41.226,16.66 41.618,17.01 42.119,17.266C42.63,17.521 43.213,17.648 43.869,17.648C44.562,17.648 45.159,17.525 45.66,17.279C46.162,17.033 46.544,16.669 46.809,16.186C47.082,15.702 47.219,15.119 47.219,14.436C47.219,13.661 47.068,13.032 46.768,12.549C46.467,12.066 46.038,11.71 45.482,11.482C44.926,11.245 44.27,11.127 43.514,11.127L41.545,11.127ZM66.564,8.379L66.564,11.633C66.564,13.191 66.41,14.522 66.1,15.625C65.799,16.719 65.361,17.607 64.787,18.291C64.213,18.975 63.525,19.476 62.723,19.795C61.93,20.114 61.041,20.274 60.057,20.274C59.273,20.274 58.544,20.173 57.869,19.973C57.204,19.772 56.602,19.458 56.064,19.029C55.527,18.601 55.066,18.049 54.684,17.375C54.31,16.691 54.018,15.876 53.809,14.928C53.608,13.98 53.508,12.882 53.508,11.633L53.508,8.379C53.508,6.811 53.663,5.49 53.973,4.414C54.283,3.329 54.725,2.45 55.299,1.775C55.873,1.092 56.557,0.595 57.35,0.285C58.152,-0.025 59.045,-0.18 60.029,-0.18C60.822,-0.18 61.551,-0.079 62.217,0.121C62.891,0.313 63.493,0.618 64.022,1.037C64.559,1.456 65.015,2.003 65.389,2.678C65.772,3.343 66.063,4.15 66.264,5.098C66.464,6.036 66.564,7.13 66.564,8.379ZM63.27,12.098L63.27,7.887C63.27,7.094 63.224,6.396 63.133,5.795C63.042,5.184 62.905,4.669 62.723,4.25C62.55,3.822 62.331,3.475 62.066,3.211C61.802,2.937 61.501,2.742 61.164,2.623C60.827,2.495 60.449,2.432 60.029,2.432C59.519,2.432 59.063,2.532 58.662,2.732C58.261,2.924 57.924,3.234 57.65,3.662C57.377,4.09 57.167,4.656 57.022,5.357C56.885,6.05 56.816,6.893 56.816,7.887L56.816,12.098C56.816,12.9 56.862,13.606 56.953,14.217C57.044,14.827 57.181,15.352 57.363,15.789C57.546,16.217 57.764,16.573 58.02,16.855C58.284,17.129 58.585,17.329 58.922,17.457C59.268,17.585 59.647,17.648 60.057,17.648C60.576,17.648 61.037,17.548 61.438,17.348C61.839,17.147 62.176,16.828 62.449,16.391C62.723,15.944 62.928,15.365 63.064,14.654C63.201,13.943 63.27,13.091 63.27,12.098Z" fill="#000000" fill-opacity="0.7"/>
<path d="M7.461,0.025L7.461,20L4.166,20L4.166,3.936L-0.715,5.59L-0.715,2.869L7.064,0.025L7.461,0.025ZM27.723,17.375L27.723,20L14.379,20L14.379,17.744L20.859,10.676C21.57,9.874 22.131,9.181 22.541,8.598C22.951,8.014 23.238,7.49 23.402,7.025C23.576,6.551 23.662,6.091 23.662,5.645C23.662,5.016 23.544,4.464 23.307,3.99C23.079,3.507 22.742,3.129 22.295,2.855C21.848,2.573 21.306,2.432 20.668,2.432C19.93,2.432 19.31,2.591 18.809,2.91C18.307,3.229 17.929,3.671 17.674,4.236C17.419,4.792 17.291,5.43 17.291,6.15L13.996,6.15C13.996,4.993 14.26,3.936 14.789,2.979C15.318,2.012 16.083,1.247 17.086,0.682C18.089,0.107 19.296,-0.18 20.709,-0.18C22.04,-0.18 23.17,0.044 24.1,0.49C25.029,0.937 25.736,1.57 26.219,2.391C26.711,3.211 26.957,4.182 26.957,5.303C26.957,5.923 26.857,6.538 26.656,7.148C26.456,7.759 26.169,8.37 25.795,8.98C25.43,9.582 24.997,10.188 24.496,10.799C23.995,11.4 23.443,12.011 22.842,12.631L18.535,17.375L27.723,17.375ZM30.525,18.359C30.525,17.849 30.699,17.421 31.045,17.074C31.391,16.719 31.861,16.541 32.453,16.541C33.055,16.541 33.524,16.719 33.861,17.074C34.208,17.421 34.381,17.849 34.381,18.359C34.381,18.87 34.208,19.298 33.861,19.645C33.524,19.991 33.055,20.164 32.453,20.164C31.861,20.164 31.391,19.991 31.045,19.645C30.699,19.298 30.525,18.87 30.525,18.359ZM30.539,6.711C30.539,6.201 30.712,5.772 31.059,5.426C31.405,5.07 31.874,4.893 32.467,4.893C33.068,4.893 33.538,5.07 33.875,5.426C34.221,5.772 34.395,6.201 34.395,6.711C34.395,7.221 34.221,7.65 33.875,7.996C33.538,8.342 33.068,8.516 32.467,8.516C31.874,8.516 31.405,8.342 31.059,7.996C30.712,7.65 30.539,7.221 30.539,6.711ZM41.545,8.557L43.514,8.557C44.279,8.557 44.913,8.424 45.414,8.16C45.925,7.896 46.303,7.531 46.549,7.066C46.795,6.602 46.918,6.068 46.918,5.467C46.918,4.838 46.804,4.3 46.576,3.854C46.357,3.398 46.02,3.047 45.564,2.801C45.118,2.555 44.548,2.432 43.856,2.432C43.272,2.432 42.744,2.55 42.27,2.787C41.805,3.015 41.436,3.343 41.162,3.771C40.889,4.191 40.752,4.692 40.752,5.275L37.443,5.275C37.443,4.218 37.721,3.279 38.277,2.459C38.833,1.639 39.59,0.996 40.547,0.531C41.513,0.057 42.598,-0.18 43.801,-0.18C45.086,-0.18 46.207,0.035 47.164,0.463C48.13,0.882 48.882,1.511 49.42,2.35C49.958,3.188 50.227,4.227 50.227,5.467C50.227,6.032 50.094,6.606 49.83,7.189C49.566,7.773 49.174,8.306 48.654,8.789C48.135,9.263 47.488,9.65 46.713,9.951C45.938,10.243 45.04,10.389 44.02,10.389L41.545,10.389L41.545,8.557ZM41.545,11.127L41.545,9.322L44.02,9.322C45.186,9.322 46.18,9.459 47,9.732C47.829,10.006 48.504,10.384 49.023,10.867C49.543,11.341 49.921,11.883 50.158,12.494C50.404,13.105 50.527,13.752 50.527,14.436C50.527,15.365 50.359,16.195 50.022,16.924C49.693,17.644 49.224,18.255 48.613,18.756C48.003,19.257 47.287,19.635 46.467,19.891C45.656,20.146 44.772,20.274 43.814,20.274C42.958,20.274 42.137,20.155 41.354,19.918C40.57,19.681 39.868,19.33 39.248,18.865C38.628,18.391 38.136,17.803 37.772,17.102C37.416,16.391 37.238,15.57 37.238,14.641L40.533,14.641C40.533,15.233 40.67,15.757 40.943,16.213C41.226,16.66 41.618,17.01 42.119,17.266C42.63,17.521 43.213,17.648 43.869,17.648C44.562,17.648 45.159,17.525 45.66,17.279C46.162,17.033 46.544,16.669 46.809,16.186C47.082,15.702 47.219,15.119 47.219,14.436C47.219,13.661 47.068,13.032 46.768,12.549C46.467,12.066 46.038,11.71 45.482,11.482C44.926,11.245 44.27,11.127 43.514,11.127L41.545,11.127ZM66.564,8.379L66.564,11.633C66.564,13.191 66.41,14.522 66.1,15.625C65.799,16.719 65.361,17.607 64.787,18.291C64.213,18.975 63.525,19.476 62.723,19.795C61.93,20.114 61.041,20.274 60.057,20.274C59.273,20.274 58.544,20.173 57.869,19.973C57.204,19.772 56.602,19.458 56.064,19.029C55.527,18.601 55.066,18.049 54.684,17.375C54.31,16.691 54.018,15.876 53.809,14.928C53.608,13.98 53.508,12.882 53.508,11.633L53.508,8.379C53.508,6.811 53.663,5.49 53.973,4.414C54.283,3.329 54.725,2.45 55.299,1.775C55.873,1.092 56.557,0.595 57.35,0.285C58.152,-0.025 59.045,-0.18 60.029,-0.18C60.822,-0.18 61.551,-0.079 62.217,0.121C62.891,0.313 63.493,0.618 64.022,1.037C64.559,1.456 65.015,2.003 65.389,2.678C65.772,3.343 66.063,4.15 66.264,5.098C66.464,6.036 66.564,7.13 66.564,8.379ZM63.27,12.098L63.27,7.887C63.27,7.094 63.224,6.396 63.133,5.795C63.042,5.184 62.905,4.669 62.723,4.25C62.55,3.822 62.331,3.475 62.066,3.211C61.802,2.937 61.501,2.742 61.164,2.623C60.827,2.495 60.449,2.432 60.029,2.432C59.519,2.432 59.063,2.532 58.662,2.732C58.261,2.924 57.924,3.234 57.65,3.662C57.377,4.09 57.167,4.656 57.022,5.357C56.885,6.05 56.816,6.893 56.816,7.887L56.816,12.098C56.816,12.9 56.862,13.606 56.953,14.217C57.044,14.827 57.181,15.352 57.363,15.789C57.546,16.217 57.764,16.573 58.02,16.855C58.284,17.129 58.585,17.329 58.922,17.457C59.268,17.585 59.647,17.648 60.057,17.648C60.576,17.648 61.037,17.548 61.438,17.348C61.839,17.147 62.176,16.828 62.449,16.391C62.723,15.944 62.928,15.365 63.064,14.654C63.201,13.943 63.27,13.091 63.27,12.098Z" fill="#000000" fill-opacity="0.7"/>
<path d="M7.461,0.025L7.461,20L4.166,20L4.166,3.936L-0.715,5.59L-0.715,2.869L7.064,0.025L7.461,0.025ZM27.723,17.375L27.723,20L14.379,20L14.379,17.744L20.859,10.676C21.57,9.874 22.131,9.181 22.541,8.598C22.951,8.014 23.238,7.49 23.402,7.025C23.576,6.551 23.662,6.091 23.662,5.645C23.662,5.016 23.544,4.464 23.307,3.99C23.079,3.507 22.742,3.129 22.295,2.855C21.848,2.573 21.306,2.432 20.668,2.432C19.93,2.432 19.31,2.591 18.809,2.91C18.307,3.229 17.929,3.671 17.674,4.236C17.419,4.792 17.291,5.43 17.291,6.15L13.996,6.15C13.996,4.993 14.26,3.936 14.789,2.979C15.318,2.012 16.083,1.247 17.086,0.682C18.089,0.107 19.296,-0.18 20.709,-0.18C22.04,-0.18 23.17,0.044 24.1,0.49C25.029,0.937 25.736,1.57 26.219,2.391C26.711,3.211 26.957,4.182 26.957,5.303C26.957,5.923 26.857,6.538 26.656,7.148C26.456,7.759 26.169,8.37 25.795,8.98C25.43,9.582 24.997,10.188 24.496,10.799C23.995,11.4 23.443,12.011 22.842,12.631L18.535,17.375L27.723,17.375ZM30.525,18.359C30.525,17.849 30.699,17.421 31.045,17.074C31.391,16.719 31.861,16.541 32.453,16.541C33.055,16.541 33.524,16.719 33.861,17.074C34.208,17.421 34.381,17.849 34.381,18.359C34.381,18.87 34.208,19.298 33.861,19.645C33.524,19.991 33.055,20.164 32.453,20.164C31.861,20.164 31.391,19.991 31.045,19.645C30.699,19.298 30.525,18.87 30.525,18.359ZM30.539,6.711C30.539,6.201 30.712,5.772 31.059,5.426C31.405,5.07 31.874,4.893 32.467,4.893C33.068,4.893 33.538,5.07 33.875,5.426C34.221,5.772 34.395,6.201 34.395,6.711C34.395,7.221 34.221,7.65 33.875,7.996C33.538,8.342 33.068,8.516 32.467,8.516C31.874,8.516 31.405,8.342 31.059,7.996C30.712,7.65 30.539,7.221 30.539,6.711ZM41.545,8.557L43.514,8.557C44.279,8.557 44.913,8.424 45.414,8.16C45.925,7.896 46.303,7.531 46.549,7.066C46.795,6.602 46.918,6.068 46.918,5.467C46.918,4.838 46.804,4.3 46.576,3.854C46.357,3.398 46.02,3.047 45.564,2.801C45.118,2.555 44.548,2.432 43.856,2.432C43.272,2.432 42.744,2.55 42.27,2.787C41.805,3.015 41.436,3.343 41.162,3.771C40.889,4.191 40.752,4.692 40.752,5.275L37.443,5.275C37.443,4.218 37.721,3.279 38.277,2.459C38.833,1.639 39.59,0.996 40.547,0.531C41.513,0.057 42.598,-0.18 43.801,-0.18C45.086,-0.18 46.207,0.035 47.164,0.463C48.13,0.882 48.882,1.511 49.42,2.35C49.958,3.188 50.227,4.227 50.227,5.467C50.227,6.032 50.094,6.606 49.83,7.189C49.566,7.773 49.174,8.306 48.654,8.789C48.135,9.263 47.488,9.65 46.713,9.951C45.938,10.243 45.04,10.389 44.02,10.389L41.545,10.389L41.545,8.557ZM41.545,11.127L41.545,9.322L44.02,9.322C45.186,9.322 46.18,9.459 47,9.732C47.829,10.006 48.504,10.384 49.023,10.867C49.543,11.341 49.921,11.883 50.158,12.494C50.404,13.105 50.527,13.752 50.527,14.436C50.527,15.365 50.359,16.195 50.022,16.924C49.693,17.644 49.224,18.255 48.613,18.756C48.003,19.257 47.287,19.635 46.467,19.891C45.656,20.146 44.772,20.274 43.814,20.274C42.958,20.274 42.137,20.155 41.354,19.918C40.57,19.681 39.868,19.33 39.248,18.865C38.628,18.391 38.136,17.803 37.772,17.102C37.416,16.391 37.238,15.57 37.238,14.641L40.533,14.641C40.533,15.233 40.67,15.757 40.943,16.213C41.226,16.66 41.618,17.01 42.119,17.266C42.63,17.521 43.213,17.648 43.869,17.648C44.562,17.648 45.159,17.525 45.66,17.279C46.162,17.033 46.544,16.669 46.809,16.186C47.082,15.702 47.219,15.119 47.219,14.436C47.219,13.661 47.068,13.032 46.768,12.549C46.467,12.066 46.038,11.71 45.482,11.482C44.926,11.245 44.27,11.127 43.514,11.127L41.545,11.127ZM66.564,8.379L66.564,11.633C66.564,13.191 66.41,14.522 66.1,15.625C65.799,16.719 65.361,17.607 64.787,18.291C64.213,18.975 63.525,19.476 62.723,19.795C61.93,20.114 61.041,20.274 60.057,20.274C59.273,20.274 58.544,20.173 57.869,19.973C57.204,19.772 56.602,19.458 56.064,19.029C55.527,18.601 55.066,18.049 54.684,17.375C54.31,16.691 54.018,15.876 53.809,14.928C53.608,13.98 53.508,12.882 53.508,11.633L53.508,8.379C53.508,6.811 53.663,5.49 53.973,4.414C54.283,3.329 54.725,2.45 55.299,1.775C55.873,1.092 56.557,0.595 57.35,0.285C58.152,-0.025 59.045,-0.18 60.029,-0.18C60.822,-0.18 61.551,-0.079 62.217,0.121C62.891,0.313 63.493,0.618 64.022,1.037C64.559,1.456 65.015,2.003 65.389,2.678C65.772,3.343 66.063,4.15 66.264,5.098C66.464,6.036 66.564,7.13 66.564,8.379ZM63.27,12.098L63.27,7.887C63.27,7.094 63.224,6.396 63.133,5.795C63.042,5.184 62.905,4.669 62.723,4.25C62.55,3.822 62.331,3.475 62.066,3.211C61.802,2.937 61.501,2.742 61.164,2.623C60.827,2.495 60.449,2.432 60.029,2.432C59.519,2.432 59.063,2.532 58.662,2.732C58.261,2.924 57.924,3.234 57.65,3.662C57.377,4.09 57.167,4.656 57.022,5.357C56.885,6.05 56.816,6.893 56.816,7.887L56.816,12.098C56.816,12.9 56.862,13.606 56.953,14.217C57.044,14.827 57.181,15.352 57.363,15.789C57.546,16.217 57.764,16.573 58.02,16.855C58.284,17.129 58.585,17.329 58.922,17.457C59.268,17.585 59.647,17.648 60.057,17.648C60.576,17.648 61.037,17.548 61.438,17.348C61.839,17.147 62.176,16.828 62.449,16.391C62.723,15.944 62.928,15.365 63.064,14.654C63.201,13.943 63.27,13.091 63.27,12.098Z" fill="#000000" fill-opacity="0.7"/>
</svg>
