<svg width="68" height="20" viewBox="0 0 68 20" fill="none" xmlns="http://www.w3.org/2000/svg" xmlns:xlink="http://www.w3.org/1999/xlink">
<path d="M7.461,-0.412L7.461,19.563L4.166,19.563L4.166,3.499L-0.715,5.153L-0.715,2.432L7.064,-0.412L7.461,-0.412ZM27.723,16.938L27.723,19.563L14.379,19.563L14.379,17.307L20.859,10.239C21.57,9.437 22.131,8.744 22.541,8.161C22.951,7.577 23.238,7.053 23.402,6.588C23.576,6.114 23.662,5.654 23.662,5.208C23.662,4.579 23.544,4.027 23.307,3.553C23.079,3.07 22.742,2.692 22.295,2.419C21.848,2.136 21.306,1.995 20.668,1.995C19.93,1.995 19.31,2.154 18.809,2.473C18.307,2.792 17.929,3.234 17.674,3.799C17.419,4.355 17.291,4.993 17.291,5.713L13.996,5.713C13.996,4.556 14.26,3.499 14.789,2.542C15.318,1.575 16.083,0.81 17.086,0.245C18.089,-0.33 19.296,-0.617 20.709,-0.617C22.04,-0.617 23.17,-0.393 24.1,0.053C25.029,0.5 25.736,1.133 26.219,1.954C26.711,2.774 26.957,3.745 26.957,4.866C26.957,5.486 26.857,6.101 26.656,6.711C26.456,7.322 26.169,7.933 25.795,8.544C25.43,9.145 24.997,9.751 24.496,10.362C23.995,10.963 23.443,11.574 22.842,12.194L18.535,16.938L27.723,16.938ZM30.525,17.922C30.525,17.412 30.699,16.984 31.045,16.637C31.391,16.282 31.861,16.104 32.453,16.104C33.055,16.104 33.524,16.282 33.861,16.637C34.208,16.984 34.381,17.412 34.381,17.922C34.381,18.433 34.208,18.861 33.861,19.208C33.524,19.554 33.055,19.727 32.453,19.727C31.861,19.727 31.391,19.554 31.045,19.208C30.699,18.861 30.525,18.433 30.525,17.922ZM30.539,6.274C30.539,5.764 30.712,5.335 31.059,4.989C31.405,4.633 31.874,4.456 32.467,4.456C33.068,4.456 33.538,4.633 33.875,4.989C34.221,5.335 34.395,5.764 34.395,6.274C34.395,6.784 34.221,7.213 33.875,7.559C33.538,7.906 33.068,8.079 32.467,8.079C31.874,8.079 31.405,7.906 31.059,7.559C30.712,7.213 30.539,6.784 30.539,6.274ZM41.545,8.12L43.514,8.12C44.279,8.12 44.913,7.988 45.414,7.723C45.925,7.459 46.303,7.094 46.549,6.629C46.795,6.165 46.918,5.631 46.918,5.03C46.918,4.401 46.804,3.863 46.576,3.417C46.357,2.961 46.02,2.61 45.564,2.364C45.118,2.118 44.548,1.995 43.856,1.995C43.272,1.995 42.744,2.113 42.27,2.35C41.805,2.578 41.436,2.906 41.162,3.335C40.889,3.754 40.752,4.255 40.752,4.838L37.443,4.838C37.443,3.781 37.721,2.842 38.277,2.022C38.833,1.202 39.59,0.559 40.547,0.094C41.513,-0.38 42.598,-0.617 43.801,-0.617C45.086,-0.617 46.207,-0.402 47.164,0.026C48.13,0.445 48.882,1.074 49.42,1.913C49.958,2.751 50.227,3.79 50.227,5.03C50.227,5.595 50.094,6.169 49.83,6.753C49.566,7.336 49.174,7.869 48.654,8.352C48.135,8.826 47.488,9.213 46.713,9.514C45.938,9.806 45.04,9.952 44.02,9.952L41.545,9.952L41.545,8.12ZM41.545,10.69L41.545,8.885L44.02,8.885C45.186,8.885 46.18,9.022 47,9.295C47.829,9.569 48.504,9.947 49.023,10.43C49.543,10.904 49.921,11.447 50.158,12.057C50.404,12.668 50.527,13.315 50.527,13.999C50.527,14.928 50.359,15.758 50.022,16.487C49.693,17.207 49.224,17.818 48.613,18.319C48.003,18.82 47.287,19.198 46.467,19.454C45.656,19.709 44.772,19.837 43.814,19.837C42.958,19.837 42.137,19.718 41.354,19.481C40.57,19.244 39.868,18.893 39.248,18.428C38.628,17.954 38.136,17.366 37.772,16.665C37.416,15.954 37.238,15.133 37.238,14.204L40.533,14.204C40.533,14.796 40.67,15.32 40.943,15.776C41.226,16.223 41.618,16.573 42.119,16.829C42.63,17.084 43.213,17.211 43.869,17.211C44.562,17.211 45.159,17.088 45.66,16.842C46.162,16.596 46.544,16.232 46.809,15.749C47.082,15.266 47.219,14.682 47.219,13.999C47.219,13.224 47.068,12.595 46.768,12.112C46.467,11.629 46.038,11.273 45.482,11.045C44.926,10.808 44.27,10.69 43.514,10.69L41.545,10.69ZM66.564,7.942L66.564,11.196C66.564,12.754 66.41,14.085 66.1,15.188C65.799,16.282 65.361,17.17 64.787,17.854C64.213,18.538 63.525,19.039 62.723,19.358C61.93,19.677 61.041,19.837 60.057,19.837C59.273,19.837 58.544,19.736 57.869,19.536C57.204,19.335 56.602,19.021 56.064,18.592C55.527,18.164 55.066,17.613 54.684,16.938C54.31,16.254 54.018,15.439 53.809,14.491C53.608,13.543 53.508,12.445 53.508,11.196L53.508,7.942C53.508,6.374 53.663,5.053 53.973,3.977C54.283,2.892 54.725,2.013 55.299,1.338C55.873,0.655 56.557,0.158 57.35,-0.152C58.152,-0.462 59.045,-0.617 60.029,-0.617C60.822,-0.617 61.551,-0.516 62.217,-0.316C62.891,-0.124 63.493,0.181 64.022,0.6C64.559,1.019 65.015,1.566 65.389,2.241C65.772,2.906 66.063,3.713 66.264,4.661C66.464,5.6 66.564,6.693 66.564,7.942ZM63.27,11.661L63.27,7.45C63.27,6.657 63.224,5.96 63.133,5.358C63.042,4.747 62.905,4.232 62.723,3.813C62.55,3.385 62.331,3.038 62.066,2.774C61.802,2.501 61.501,2.305 61.164,2.186C60.827,2.059 60.449,1.995 60.029,1.995C59.519,1.995 59.063,2.095 58.662,2.295C58.261,2.487 57.924,2.797 57.65,3.225C57.377,3.654 57.167,4.219 57.022,4.92C56.885,5.613 56.816,6.456 56.816,7.45L56.816,11.661C56.816,12.463 56.862,13.169 56.953,13.78C57.044,14.391 57.181,14.915 57.363,15.352C57.546,15.781 57.764,16.136 58.02,16.419C58.284,16.692 58.585,16.892 58.922,17.02C59.268,17.148 59.647,17.211 60.057,17.211C60.576,17.211 61.037,17.111 61.438,16.911C61.839,16.71 62.176,16.391 62.449,15.954C62.723,15.507 62.928,14.928 63.064,14.217C63.201,13.506 63.27,12.654 63.27,11.661Z" fill="#000000" fill-opacity="0.7"/>
<path d="M7.461,-0.412L7.461,19.563L4.166,19.563L4.166,3.499L-0.715,5.153L-0.715,2.432L7.064,-0.412L7.461,-0.412ZM27.723,16.938L27.723,19.563L14.379,19.563L14.379,17.307L20.859,10.239C21.57,9.437 22.131,8.744 22.541,8.161C22.951,7.577 23.238,7.053 23.402,6.588C23.576,6.114 23.662,5.654 23.662,5.208C23.662,4.579 23.544,4.027 23.307,3.553C23.079,3.07 22.742,2.692 22.295,2.419C21.848,2.136 21.306,1.995 20.668,1.995C19.93,1.995 19.31,2.154 18.809,2.473C18.307,2.792 17.929,3.234 17.674,3.799C17.419,4.355 17.291,4.993 17.291,5.713L13.996,5.713C13.996,4.556 14.26,3.499 14.789,2.542C15.318,1.575 16.083,0.81 17.086,0.245C18.089,-0.33 19.296,-0.617 20.709,-0.617C22.04,-0.617 23.17,-0.393 24.1,0.053C25.029,0.5 25.736,1.133 26.219,1.954C26.711,2.774 26.957,3.745 26.957,4.866C26.957,5.486 26.857,6.101 26.656,6.711C26.456,7.322 26.169,7.933 25.795,8.544C25.43,9.145 24.997,9.751 24.496,10.362C23.995,10.963 23.443,11.574 22.842,12.194L18.535,16.938L27.723,16.938ZM30.525,17.922C30.525,17.412 30.699,16.984 31.045,16.637C31.391,16.282 31.861,16.104 32.453,16.104C33.055,16.104 33.524,16.282 33.861,16.637C34.208,16.984 34.381,17.412 34.381,17.922C34.381,18.433 34.208,18.861 33.861,19.208C33.524,19.554 33.055,19.727 32.453,19.727C31.861,19.727 31.391,19.554 31.045,19.208C30.699,18.861 30.525,18.433 30.525,17.922ZM30.539,6.274C30.539,5.764 30.712,5.335 31.059,4.989C31.405,4.633 31.874,4.456 32.467,4.456C33.068,4.456 33.538,4.633 33.875,4.989C34.221,5.335 34.395,5.764 34.395,6.274C34.395,6.784 34.221,7.213 33.875,7.559C33.538,7.906 33.068,8.079 32.467,8.079C31.874,8.079 31.405,7.906 31.059,7.559C30.712,7.213 30.539,6.784 30.539,6.274ZM41.545,8.12L43.514,8.12C44.279,8.12 44.913,7.988 45.414,7.723C45.925,7.459 46.303,7.094 46.549,6.629C46.795,6.165 46.918,5.631 46.918,5.03C46.918,4.401 46.804,3.863 46.576,3.417C46.357,2.961 46.02,2.61 45.564,2.364C45.118,2.118 44.548,1.995 43.856,1.995C43.272,1.995 42.744,2.113 42.27,2.35C41.805,2.578 41.436,2.906 41.162,3.335C40.889,3.754 40.752,4.255 40.752,4.838L37.443,4.838C37.443,3.781 37.721,2.842 38.277,2.022C38.833,1.202 39.59,0.559 40.547,0.094C41.513,-0.38 42.598,-0.617 43.801,-0.617C45.086,-0.617 46.207,-0.402 47.164,0.026C48.13,0.445 48.882,1.074 49.42,1.913C49.958,2.751 50.227,3.79 50.227,5.03C50.227,5.595 50.094,6.169 49.83,6.753C49.566,7.336 49.174,7.869 48.654,8.352C48.135,8.826 47.488,9.213 46.713,9.514C45.938,9.806 45.04,9.952 44.02,9.952L41.545,9.952L41.545,8.12ZM41.545,10.69L41.545,8.885L44.02,8.885C45.186,8.885 46.18,9.022 47,9.295C47.829,9.569 48.504,9.947 49.023,10.43C49.543,10.904 49.921,11.447 50.158,12.057C50.404,12.668 50.527,13.315 50.527,13.999C50.527,14.928 50.359,15.758 50.022,16.487C49.693,17.207 49.224,17.818 48.613,18.319C48.003,18.82 47.287,19.198 46.467,19.454C45.656,19.709 44.772,19.837 43.814,19.837C42.958,19.837 42.137,19.718 41.354,19.481C40.57,19.244 39.868,18.893 39.248,18.428C38.628,17.954 38.136,17.366 37.772,16.665C37.416,15.954 37.238,15.133 37.238,14.204L40.533,14.204C40.533,14.796 40.67,15.32 40.943,15.776C41.226,16.223 41.618,16.573 42.119,16.829C42.63,17.084 43.213,17.211 43.869,17.211C44.562,17.211 45.159,17.088 45.66,16.842C46.162,16.596 46.544,16.232 46.809,15.749C47.082,15.266 47.219,14.682 47.219,13.999C47.219,13.224 47.068,12.595 46.768,12.112C46.467,11.629 46.038,11.273 45.482,11.045C44.926,10.808 44.27,10.69 43.514,10.69L41.545,10.69ZM66.564,7.942L66.564,11.196C66.564,12.754 66.41,14.085 66.1,15.188C65.799,16.282 65.361,17.17 64.787,17.854C64.213,18.538 63.525,19.039 62.723,19.358C61.93,19.677 61.041,19.837 60.057,19.837C59.273,19.837 58.544,19.736 57.869,19.536C57.204,19.335 56.602,19.021 56.064,18.592C55.527,18.164 55.066,17.613 54.684,16.938C54.31,16.254 54.018,15.439 53.809,14.491C53.608,13.543 53.508,12.445 53.508,11.196L53.508,7.942C53.508,6.374 53.663,5.053 53.973,3.977C54.283,2.892 54.725,2.013 55.299,1.338C55.873,0.655 56.557,0.158 57.35,-0.152C58.152,-0.462 59.045,-0.617 60.029,-0.617C60.822,-0.617 61.551,-0.516 62.217,-0.316C62.891,-0.124 63.493,0.181 64.022,0.6C64.559,1.019 65.015,1.566 65.389,2.241C65.772,2.906 66.063,3.713 66.264,4.661C66.464,5.6 66.564,6.693 66.564,7.942ZM63.27,11.661L63.27,7.45C63.27,6.657 63.224,5.96 63.133,5.358C63.042,4.747 62.905,4.232 62.723,3.813C62.55,3.385 62.331,3.038 62.066,2.774C61.802,2.501 61.501,2.305 61.164,2.186C60.827,2.059 60.449,1.995 60.029,1.995C59.519,1.995 59.063,2.095 58.662,2.295C58.261,2.487 57.924,2.797 57.65,3.225C57.377,3.654 57.167,4.219 57.022,4.92C56.885,5.613 56.816,6.456 56.816,7.45L56.816,11.661C56.816,12.463 56.862,13.169 56.953,13.78C57.044,14.391 57.181,14.915 57.363,15.352C57.546,15.781 57.764,16.136 58.02,16.419C58.284,16.692 58.585,16.892 58.922,17.02C59.268,17.148 59.647,17.211 60.057,17.211C60.576,17.211 61.037,17.111 61.438,16.911C61.839,16.71 62.176,16.391 62.449,15.954C62.723,15.507 62.928,14.928 63.064,14.217C63.201,13.506 63.27,12.654 63.27,11.661Z" fill="#000000" fill-opacity="0.7"/>
<path d="M7.461,-0.412L7.461,19.563L4.166,19.563L4.166,3.499L-0.715,5.153L-0.715,2.432L7.064,-0.412L7.461,-0.412ZM27.723,16.938L27.723,19.563L14.379,19.563L14.379,17.307L20.859,10.239C21.57,9.437 22.131,8.744 22.541,8.161C22.951,7.577 23.238,7.053 23.402,6.588C23.576,6.114 23.662,5.654 23.662,5.208C23.662,4.579 23.544,4.027 23.307,3.553C23.079,3.07 22.742,2.692 22.295,2.419C21.848,2.136 21.306,1.995 20.668,1.995C19.93,1.995 19.31,2.154 18.809,2.473C18.307,2.792 17.929,3.234 17.674,3.799C17.419,4.355 17.291,4.993 17.291,5.713L13.996,5.713C13.996,4.556 14.26,3.499 14.789,2.542C15.318,1.575 16.083,0.81 17.086,0.245C18.089,-0.33 19.296,-0.617 20.709,-0.617C22.04,-0.617 23.17,-0.393 24.1,0.053C25.029,0.5 25.736,1.133 26.219,1.954C26.711,2.774 26.957,3.745 26.957,4.866C26.957,5.486 26.857,6.101 26.656,6.711C26.456,7.322 26.169,7.933 25.795,8.544C25.43,9.145 24.997,9.751 24.496,10.362C23.995,10.963 23.443,11.574 22.842,12.194L18.535,16.938L27.723,16.938ZM30.525,17.922C30.525,17.412 30.699,16.984 31.045,16.637C31.391,16.282 31.861,16.104 32.453,16.104C33.055,16.104 33.524,16.282 33.861,16.637C34.208,16.984 34.381,17.412 34.381,17.922C34.381,18.433 34.208,18.861 33.861,19.208C33.524,19.554 33.055,19.727 32.453,19.727C31.861,19.727 31.391,19.554 31.045,19.208C30.699,18.861 30.525,18.433 30.525,17.922ZM30.539,6.274C30.539,5.764 30.712,5.335 31.059,4.989C31.405,4.633 31.874,4.456 32.467,4.456C33.068,4.456 33.538,4.633 33.875,4.989C34.221,5.335 34.395,5.764 34.395,6.274C34.395,6.784 34.221,7.213 33.875,7.559C33.538,7.906 33.068,8.079 32.467,8.079C31.874,8.079 31.405,7.906 31.059,7.559C30.712,7.213 30.539,6.784 30.539,6.274ZM41.545,8.12L43.514,8.12C44.279,8.12 44.913,7.988 45.414,7.723C45.925,7.459 46.303,7.094 46.549,6.629C46.795,6.165 46.918,5.631 46.918,5.03C46.918,4.401 46.804,3.863 46.576,3.417C46.357,2.961 46.02,2.61 45.564,2.364C45.118,2.118 44.548,1.995 43.856,1.995C43.272,1.995 42.744,2.113 42.27,2.35C41.805,2.578 41.436,2.906 41.162,3.335C40.889,3.754 40.752,4.255 40.752,4.838L37.443,4.838C37.443,3.781 37.721,2.842 38.277,2.022C38.833,1.202 39.59,0.559 40.547,0.094C41.513,-0.38 42.598,-0.617 43.801,-0.617C45.086,-0.617 46.207,-0.402 47.164,0.026C48.13,0.445 48.882,1.074 49.42,1.913C49.958,2.751 50.227,3.79 50.227,5.03C50.227,5.595 50.094,6.169 49.83,6.753C49.566,7.336 49.174,7.869 48.654,8.352C48.135,8.826 47.488,9.213 46.713,9.514C45.938,9.806 45.04,9.952 44.02,9.952L41.545,9.952L41.545,8.12ZM41.545,10.69L41.545,8.885L44.02,8.885C45.186,8.885 46.18,9.022 47,9.295C47.829,9.569 48.504,9.947 49.023,10.43C49.543,10.904 49.921,11.447 50.158,12.057C50.404,12.668 50.527,13.315 50.527,13.999C50.527,14.928 50.359,15.758 50.022,16.487C49.693,17.207 49.224,17.818 48.613,18.319C48.003,18.82 47.287,19.198 46.467,19.454C45.656,19.709 44.772,19.837 43.814,19.837C42.958,19.837 42.137,19.718 41.354,19.481C40.57,19.244 39.868,18.893 39.248,18.428C38.628,17.954 38.136,17.366 37.772,16.665C37.416,15.954 37.238,15.133 37.238,14.204L40.533,14.204C40.533,14.796 40.67,15.32 40.943,15.776C41.226,16.223 41.618,16.573 42.119,16.829C42.63,17.084 43.213,17.211 43.869,17.211C44.562,17.211 45.159,17.088 45.66,16.842C46.162,16.596 46.544,16.232 46.809,15.749C47.082,15.266 47.219,14.682 47.219,13.999C47.219,13.224 47.068,12.595 46.768,12.112C46.467,11.629 46.038,11.273 45.482,11.045C44.926,10.808 44.27,10.69 43.514,10.69L41.545,10.69ZM66.564,7.942L66.564,11.196C66.564,12.754 66.41,14.085 66.1,15.188C65.799,16.282 65.361,17.17 64.787,17.854C64.213,18.538 63.525,19.039 62.723,19.358C61.93,19.677 61.041,19.837 60.057,19.837C59.273,19.837 58.544,19.736 57.869,19.536C57.204,19.335 56.602,19.021 56.064,18.592C55.527,18.164 55.066,17.613 54.684,16.938C54.31,16.254 54.018,15.439 53.809,14.491C53.608,13.543 53.508,12.445 53.508,11.196L53.508,7.942C53.508,6.374 53.663,5.053 53.973,3.977C54.283,2.892 54.725,2.013 55.299,1.338C55.873,0.655 56.557,0.158 57.35,-0.152C58.152,-0.462 59.045,-0.617 60.029,-0.617C60.822,-0.617 61.551,-0.516 62.217,-0.316C62.891,-0.124 63.493,0.181 64.022,0.6C64.559,1.019 65.015,1.566 65.389,2.241C65.772,2.906 66.063,3.713 66.264,4.661C66.464,5.6 66.564,6.693 66.564,7.942ZM63.27,11.661L63.27,7.45C63.27,6.657 63.224,5.96 63.133,5.358C63.042,4.747 62.905,4.232 62.723,3.813C62.55,3.385 62.331,3.038 62.066,2.774C61.802,2.501 61.501,2.305 61.164,2.186C60.827,2.059 60.449,1.995 60.029,1.995C59.519,1.995 59.063,2.095 58.662,2.295C58.261,2.487 57.924,2.797 57.65,3.225C57.377,3.654 57.167,4.219 57.022,4.92C56.885,5.613 56.816,6.456 56.816,7.45L56.816,11.661C56.816,12.463 56.862,13.169 56.953,13.78C57.044,14.391 57.181,14.915 57.363,15.352C57.546,15.781 57.764,16.136 58.02,16.419C58.284,16.692 58.585,16.892 58.922,17.02C59.268,17.148 59.647,17.211 60.057,17.211C60.576,17.211 61.037,17.111 61.438,16.911C61.839,16.71 62.176,16.391 62.449,15.954C62.723,15.507 62.928,14.928 63.064,14.217C63.201,13.506 63.27,12.654 63.27,11.661Z" fill="#000000" fill-opacity="0.7"/>
<path d="M7.461,-0.412L7.461,19.563L4.166,19.563L4.166,3.499L-0.715,5.153L-0.715,2.432L7.064,-0.412L7.461,-0.412ZM27.723,16.938L27.723,19.563L14.379,19.563L14.379,17.307L20.859,10.239C21.57,9.437 22.131,8.744 22.541,8.161C22.951,7.577 23.238,7.053 23.402,6.588C23.576,6.114 23.662,5.654 23.662,5.208C23.662,4.579 23.544,4.027 23.307,3.553C23.079,3.07 22.742,2.692 22.295,2.419C21.848,2.136 21.306,1.995 20.668,1.995C19.93,1.995 19.31,2.154 18.809,2.473C18.307,2.792 17.929,3.234 17.674,3.799C17.419,4.355 17.291,4.993 17.291,5.713L13.996,5.713C13.996,4.556 14.26,3.499 14.789,2.542C15.318,1.575 16.083,0.81 17.086,0.245C18.089,-0.33 19.296,-0.617 20.709,-0.617C22.04,-0.617 23.17,-0.393 24.1,0.053C25.029,0.5 25.736,1.133 26.219,1.954C26.711,2.774 26.957,3.745 26.957,4.866C26.957,5.486 26.857,6.101 26.656,6.711C26.456,7.322 26.169,7.933 25.795,8.544C25.43,9.145 24.997,9.751 24.496,10.362C23.995,10.963 23.443,11.574 22.842,12.194L18.535,16.938L27.723,16.938ZM30.525,17.922C30.525,17.412 30.699,16.984 31.045,16.637C31.391,16.282 31.861,16.104 32.453,16.104C33.055,16.104 33.524,16.282 33.861,16.637C34.208,16.984 34.381,17.412 34.381,17.922C34.381,18.433 34.208,18.861 33.861,19.208C33.524,19.554 33.055,19.727 32.453,19.727C31.861,19.727 31.391,19.554 31.045,19.208C30.699,18.861 30.525,18.433 30.525,17.922ZM30.539,6.274C30.539,5.764 30.712,5.335 31.059,4.989C31.405,4.633 31.874,4.456 32.467,4.456C33.068,4.456 33.538,4.633 33.875,4.989C34.221,5.335 34.395,5.764 34.395,6.274C34.395,6.784 34.221,7.213 33.875,7.559C33.538,7.906 33.068,8.079 32.467,8.079C31.874,8.079 31.405,7.906 31.059,7.559C30.712,7.213 30.539,6.784 30.539,6.274ZM41.545,8.12L43.514,8.12C44.279,8.12 44.913,7.988 45.414,7.723C45.925,7.459 46.303,7.094 46.549,6.629C46.795,6.165 46.918,5.631 46.918,5.03C46.918,4.401 46.804,3.863 46.576,3.417C46.357,2.961 46.02,2.61 45.564,2.364C45.118,2.118 44.548,1.995 43.856,1.995C43.272,1.995 42.744,2.113 42.27,2.35C41.805,2.578 41.436,2.906 41.162,3.335C40.889,3.754 40.752,4.255 40.752,4.838L37.443,4.838C37.443,3.781 37.721,2.842 38.277,2.022C38.833,1.202 39.59,0.559 40.547,0.094C41.513,-0.38 42.598,-0.617 43.801,-0.617C45.086,-0.617 46.207,-0.402 47.164,0.026C48.13,0.445 48.882,1.074 49.42,1.913C49.958,2.751 50.227,3.79 50.227,5.03C50.227,5.595 50.094,6.169 49.83,6.753C49.566,7.336 49.174,7.869 48.654,8.352C48.135,8.826 47.488,9.213 46.713,9.514C45.938,9.806 45.04,9.952 44.02,9.952L41.545,9.952L41.545,8.12ZM41.545,10.69L41.545,8.885L44.02,8.885C45.186,8.885 46.18,9.022 47,9.295C47.829,9.569 48.504,9.947 49.023,10.43C49.543,10.904 49.921,11.447 50.158,12.057C50.404,12.668 50.527,13.315 50.527,13.999C50.527,14.928 50.359,15.758 50.022,16.487C49.693,17.207 49.224,17.818 48.613,18.319C48.003,18.82 47.287,19.198 46.467,19.454C45.656,19.709 44.772,19.837 43.814,19.837C42.958,19.837 42.137,19.718 41.354,19.481C40.57,19.244 39.868,18.893 39.248,18.428C38.628,17.954 38.136,17.366 37.772,16.665C37.416,15.954 37.238,15.133 37.238,14.204L40.533,14.204C40.533,14.796 40.67,15.32 40.943,15.776C41.226,16.223 41.618,16.573 42.119,16.829C42.63,17.084 43.213,17.211 43.869,17.211C44.562,17.211 45.159,17.088 45.66,16.842C46.162,16.596 46.544,16.232 46.809,15.749C47.082,15.266 47.219,14.682 47.219,13.999C47.219,13.224 47.068,12.595 46.768,12.112C46.467,11.629 46.038,11.273 45.482,11.045C44.926,10.808 44.27,10.69 43.514,10.69L41.545,10.69ZM66.564,7.942L66.564,11.196C66.564,12.754 66.41,14.085 66.1,15.188C65.799,16.282 65.361,17.17 64.787,17.854C64.213,18.538 63.525,19.039 62.723,19.358C61.93,19.677 61.041,19.837 60.057,19.837C59.273,19.837 58.544,19.736 57.869,19.536C57.204,19.335 56.602,19.021 56.064,18.592C55.527,18.164 55.066,17.613 54.684,16.938C54.31,16.254 54.018,15.439 53.809,14.491C53.608,13.543 53.508,12.445 53.508,11.196L53.508,7.942C53.508,6.374 53.663,5.053 53.973,3.977C54.283,2.892 54.725,2.013 55.299,1.338C55.873,0.655 56.557,0.158 57.35,-0.152C58.152,-0.462 59.045,-0.617 60.029,-0.617C60.822,-0.617 61.551,-0.516 62.217,-0.316C62.891,-0.124 63.493,0.181 64.022,0.6C64.559,1.019 65.015,1.566 65.389,2.241C65.772,2.906 66.063,3.713 66.264,4.661C66.464,5.6 66.564,6.693 66.564,7.942ZM63.27,11.661L63.27,7.45C63.27,6.657 63.224,5.96 63.133,5.358C63.042,4.747 62.905,4.232 62.723,3.813C62.55,3.385 62.331,3.038 62.066,2.774C61.802,2.501 61.501,2.305 61.164,2.186C60.827,2.059 60.449,1.995 60.029,1.995C59.519,1.995 59.063,2.095 58.662,2.295C58.261,2.487 57.924,2.797 57.65,3.225C57.377,3.654 57.167,4.219 57.022,4.92C56.885,5.613 56.816,6.456 56.816,7.45L56.816,11.661C56.816,12.463 56.862,13.169 56.953,13.78C57.044,14.391 57.181,14.915 57.363,15.352C57.546,15.781 57.764,16.136 58.02,16.419C58.284,16.692 58.585,16.892 58.922,17.02C59.268,17.148 59.647,17.211 60.057,17.211C60.576,17.211 61.037,17.111 61.438,16.911C61.839,16.71 62.176,16.391 62.449,15.954C62.723,15.507 62.928,14.928 63.064,14.217C63.201,13.506 63.27,12.654 63.27,11.661Z" fill="#000000" fill-opacity="0.7"/>
<path d="M7.461,-0.412L7.461,19.563L4.166,19.563L4.166,3.499L-0.715,5.153L-0.715,2.432L7.064,-0.412L7.461,-0.412ZM27.723,16.938L27.723,19.563L14.379,19.563L14.379,17.307L20.859,10.239C21.57,9.437 22.131,8.744 22.541,8.161C22.951,7.577 23.238,7.053 23.402,6.588C23.576,6.114 23.662,5.654 23.662,5.208C23.662,4.579 23.544,4.027 23.307,3.553C23.079,3.07 22.742,2.692 22.295,2.419C21.848,2.136 21.306,1.995 20.668,1.995C19.93,1.995 19.31,2.154 18.809,2.473C18.307,2.792 17.929,3.234 17.674,3.799C17.419,4.355 17.291,4.993 17.291,5.713L13.996,5.713C13.996,4.556 14.26,3.499 14.789,2.542C15.318,1.575 16.083,0.81 17.086,0.245C18.089,-0.33 19.296,-0.617 20.709,-0.617C22.04,-0.617 23.17,-0.393 24.1,0.053C25.029,0.5 25.736,1.133 26.219,1.954C26.711,2.774 26.957,3.745 26.957,4.866C26.957,5.486 26.857,6.101 26.656,6.711C26.456,7.322 26.169,7.933 25.795,8.544C25.43,9.145 24.997,9.751 24.496,10.362C23.995,10.963 23.443,11.574 22.842,12.194L18.535,16.938L27.723,16.938ZM30.525,17.922C30.525,17.412 30.699,16.984 31.045,16.637C31.391,16.282 31.861,16.104 32.453,16.104C33.055,16.104 33.524,16.282 33.861,16.637C34.208,16.984 34.381,17.412 34.381,17.922C34.381,18.433 34.208,18.861 33.861,19.208C33.524,19.554 33.055,19.727 32.453,19.727C31.861,19.727 31.391,19.554 31.045,19.208C30.699,18.861 30.525,18.433 30.525,17.922ZM30.539,6.274C30.539,5.764 30.712,5.335 31.059,4.989C31.405,4.633 31.874,4.456 32.467,4.456C33.068,4.456 33.538,4.633 33.875,4.989C34.221,5.335 34.395,5.764 34.395,6.274C34.395,6.784 34.221,7.213 33.875,7.559C33.538,7.906 33.068,8.079 32.467,8.079C31.874,8.079 31.405,7.906 31.059,7.559C30.712,7.213 30.539,6.784 30.539,6.274ZM41.545,8.12L43.514,8.12C44.279,8.12 44.913,7.988 45.414,7.723C45.925,7.459 46.303,7.094 46.549,6.629C46.795,6.165 46.918,5.631 46.918,5.03C46.918,4.401 46.804,3.863 46.576,3.417C46.357,2.961 46.02,2.61 45.564,2.364C45.118,2.118 44.548,1.995 43.856,1.995C43.272,1.995 42.744,2.113 42.27,2.35C41.805,2.578 41.436,2.906 41.162,3.335C40.889,3.754 40.752,4.255 40.752,4.838L37.443,4.838C37.443,3.781 37.721,2.842 38.277,2.022C38.833,1.202 39.59,0.559 40.547,0.094C41.513,-0.38 42.598,-0.617 43.801,-0.617C45.086,-0.617 46.207,-0.402 47.164,0.026C48.13,0.445 48.882,1.074 49.42,1.913C49.958,2.751 50.227,3.79 50.227,5.03C50.227,5.595 50.094,6.169 49.83,6.753C49.566,7.336 49.174,7.869 48.654,8.352C48.135,8.826 47.488,9.213 46.713,9.514C45.938,9.806 45.04,9.952 44.02,9.952L41.545,9.952L41.545,8.12ZM41.545,10.69L41.545,8.885L44.02,8.885C45.186,8.885 46.18,9.022 47,9.295C47.829,9.569 48.504,9.947 49.023,10.43C49.543,10.904 49.921,11.447 50.158,12.057C50.404,12.668 50.527,13.315 50.527,13.999C50.527,14.928 50.359,15.758 50.022,16.487C49.693,17.207 49.224,17.818 48.613,18.319C48.003,18.82 47.287,19.198 46.467,19.454C45.656,19.709 44.772,19.837 43.814,19.837C42.958,19.837 42.137,19.718 41.354,19.481C40.57,19.244 39.868,18.893 39.248,18.428C38.628,17.954 38.136,17.366 37.772,16.665C37.416,15.954 37.238,15.133 37.238,14.204L40.533,14.204C40.533,14.796 40.67,15.32 40.943,15.776C41.226,16.223 41.618,16.573 42.119,16.829C42.63,17.084 43.213,17.211 43.869,17.211C44.562,17.211 45.159,17.088 45.66,16.842C46.162,16.596 46.544,16.232 46.809,15.749C47.082,15.266 47.219,14.682 47.219,13.999C47.219,13.224 47.068,12.595 46.768,12.112C46.467,11.629 46.038,11.273 45.482,11.045C44.926,10.808 44.27,10.69 43.514,10.69L41.545,10.69ZM66.564,7.942L66.564,11.196C66.564,12.754 66.41,14.085 66.1,15.188C65.799,16.282 65.361,17.17 64.787,17.854C64.213,18.538 63.525,19.039 62.723,19.358C61.93,19.677 61.041,19.837 60.057,19.837C59.273,19.837 58.544,19.736 57.869,19.536C57.204,19.335 56.602,19.021 56.064,18.592C55.527,18.164 55.066,17.613 54.684,16.938C54.31,16.254 54.018,15.439 53.809,14.491C53.608,13.543 53.508,12.445 53.508,11.196L53.508,7.942C53.508,6.374 53.663,5.053 53.973,3.977C54.283,2.892 54.725,2.013 55.299,1.338C55.873,0.655 56.557,0.158 57.35,-0.152C58.152,-0.462 59.045,-0.617 60.029,-0.617C60.822,-0.617 61.551,-0.516 62.217,-0.316C62.891,-0.124 63.493,0.181 64.022,0.6C64.559,1.019 65.015,1.566 65.389,2.241C65.772,2.906 66.063,3.713 66.264,4.661C66.464,5.6 66.564,6.693 66.564,7.942ZM63.27,11.661L63.27,7.45C63.27,6.657 63.224,5.96 63.133,5.358C63.042,4.747 62.905,4.232 62.723,3.813C62.55,3.385 62.331,3.038 62.066,2.774C61.802,2.501 61.501,2.305 61.164,2.186C60.827,2.059 60.449,1.995 60.029,1.995C59.519,1.995 59.063,2.095 58.662,2.295C58.261,2.487 57.924,2.797 57.65,3.225C57.377,3.654 57.167,4.219 57.022,4.92C56.885,5.613 56.816,6.456 56.816,7.45L56.816,11.661C56.816,12.463 56.862,13.169 56.953,13.78C57.044,14.391 57.181,14.915 57.363,15.352C57.546,15.781 57.764,16.136 58.02,16.419C58.284,16.692 58.585,16.892 58.922,17.02C59.268,17.148 59.647,17.211 60.057,17.211C60.576,17.211 61.037,17.111 61.438,16.911C61.839,16.71 62.176,16.391 62.449,15.954C62.723,15.507 62.928,14.928 63.064,14.217C63.201,13.506 63.27,12.654 63.27,11.661Z" fill="#000000" fill-opacity="0.7"/>
</svg>
