<svg width="68" height="22" viewBox="0 0 68 22" fill="none" xmlns="http://www.w3.org/2000/svg" xmlns:xlink="http://www.w3.org/1999/xlink">
<path d="M8.461,0.025L8.461,20L5.166,20L5.166,3.936L0.285,5.59L0.285,2.869L8.064,0.025L8.461,0.025ZM28.723,17.375L28.723,20L15.379,20L15.379,17.744L21.859,10.676C22.57,9.874 23.131,9.181 23.541,8.598C23.951,8.014 24.238,7.49 24.402,7.025C24.576,6.551 24.662,6.091 24.662,5.645C24.662,5.016 24.544,4.464 24.307,3.99C24.079,3.507 23.742,3.129 23.295,2.855C22.848,2.573 22.306,2.432 21.668,2.432C20.93,2.432 20.31,2.591 19.809,2.91C19.307,3.229 18.929,3.671 18.674,4.236C18.419,4.792 18.291,5.43 18.291,6.15L14.996,6.15C14.996,4.993 15.26,3.936 15.789,2.979C16.318,2.012 17.083,1.247 18.086,0.682C19.089,0.107 20.296,-0.18 21.709,-0.18C23.04,-0.18 24.17,0.044 25.1,0.49C26.029,0.937 26.736,1.57 27.219,2.391C27.711,3.211 27.957,4.182 27.957,5.303C27.957,5.923 27.857,6.538 27.656,7.148C27.456,7.759 27.169,8.37 26.795,8.98C26.43,9.582 25.997,10.188 25.496,10.799C24.995,11.4 24.443,12.011 23.842,12.631L19.535,17.375L28.723,17.375ZM31.525,18.359C31.525,17.849 31.699,17.421 32.045,17.074C32.391,16.719 32.861,16.541 33.453,16.541C34.055,16.541 34.524,16.719 34.861,17.074C35.208,17.421 35.381,17.849 35.381,18.359C35.381,18.87 35.208,19.298 34.861,19.645C34.524,19.991 34.055,20.164 33.453,20.164C32.861,20.164 32.391,19.991 32.045,19.645C31.699,19.298 31.525,18.87 31.525,18.359ZM31.539,6.711C31.539,6.201 31.712,5.772 32.059,5.426C32.405,5.07 32.874,4.893 33.467,4.893C34.068,4.893 34.538,5.07 34.875,5.426C35.221,5.772 35.395,6.201 35.395,6.711C35.395,7.221 35.221,7.65 34.875,7.996C34.538,8.342 34.068,8.516 33.467,8.516C32.874,8.516 32.405,8.342 32.059,7.996C31.712,7.65 31.539,7.221 31.539,6.711ZM42.545,8.557L44.514,8.557C45.279,8.557 45.913,8.424 46.414,8.16C46.925,7.896 47.303,7.531 47.549,7.066C47.795,6.602 47.918,6.068 47.918,5.467C47.918,4.838 47.804,4.3 47.576,3.854C47.357,3.398 47.02,3.047 46.564,2.801C46.118,2.555 45.548,2.432 44.856,2.432C44.272,2.432 43.744,2.55 43.27,2.787C42.805,3.015 42.436,3.343 42.162,3.771C41.889,4.191 41.752,4.692 41.752,5.275L38.443,5.275C38.443,4.218 38.721,3.279 39.277,2.459C39.833,1.639 40.59,0.996 41.547,0.531C42.513,0.057 43.598,-0.18 44.801,-0.18C46.086,-0.18 47.207,0.035 48.164,0.463C49.13,0.882 49.882,1.511 50.42,2.35C50.958,3.188 51.227,4.227 51.227,5.467C51.227,6.032 51.094,6.606 50.83,7.189C50.566,7.773 50.174,8.306 49.654,8.789C49.135,9.263 48.488,9.65 47.713,9.951C46.938,10.243 46.04,10.389 45.02,10.389L42.545,10.389L42.545,8.557ZM42.545,11.127L42.545,9.322L45.02,9.322C46.186,9.322 47.18,9.459 48,9.732C48.829,10.006 49.504,10.384 50.023,10.867C50.543,11.341 50.921,11.883 51.158,12.494C51.404,13.105 51.527,13.752 51.527,14.436C51.527,15.365 51.359,16.195 51.022,16.924C50.693,17.644 50.224,18.255 49.613,18.756C49.003,19.257 48.287,19.635 47.467,19.891C46.656,20.146 45.772,20.274 44.814,20.274C43.958,20.274 43.137,20.155 42.354,19.918C41.57,19.681 40.868,19.33 40.248,18.865C39.628,18.391 39.136,17.803 38.772,17.102C38.416,16.391 38.238,15.57 38.238,14.641L41.533,14.641C41.533,15.233 41.67,15.757 41.943,16.213C42.226,16.66 42.618,17.01 43.119,17.266C43.63,17.521 44.213,17.648 44.869,17.648C45.562,17.648 46.159,17.525 46.66,17.279C47.162,17.033 47.544,16.669 47.809,16.186C48.082,15.702 48.219,15.119 48.219,14.436C48.219,13.661 48.068,13.032 47.768,12.549C47.467,12.066 47.038,11.71 46.482,11.482C45.926,11.245 45.27,11.127 44.514,11.127L42.545,11.127ZM67.564,8.379L67.564,11.633C67.564,13.191 67.41,14.522 67.1,15.625C66.799,16.719 66.361,17.607 65.787,18.291C65.213,18.975 64.525,19.476 63.723,19.795C62.93,20.114 62.041,20.274 61.057,20.274C60.273,20.274 59.544,20.173 58.869,19.973C58.204,19.772 57.602,19.458 57.064,19.029C56.527,18.601 56.066,18.049 55.684,17.375C55.31,16.691 55.018,15.876 54.809,14.928C54.608,13.98 54.508,12.882 54.508,11.633L54.508,8.379C54.508,6.811 54.663,5.49 54.973,4.414C55.283,3.329 55.725,2.45 56.299,1.775C56.873,1.092 57.557,0.595 58.35,0.285C59.152,-0.025 60.045,-0.18 61.029,-0.18C61.822,-0.18 62.551,-0.079 63.217,0.121C63.891,0.313 64.493,0.618 65.022,1.037C65.559,1.456 66.015,2.003 66.389,2.678C66.772,3.343 67.063,4.15 67.264,5.098C67.464,6.036 67.564,7.13 67.564,8.379ZM64.27,12.098L64.27,7.887C64.27,7.094 64.224,6.396 64.133,5.795C64.042,5.184 63.905,4.669 63.723,4.25C63.55,3.822 63.331,3.475 63.066,3.211C62.802,2.937 62.501,2.742 62.164,2.623C61.827,2.495 61.449,2.432 61.029,2.432C60.519,2.432 60.063,2.532 59.662,2.732C59.261,2.924 58.924,3.234 58.65,3.662C58.377,4.09 58.167,4.656 58.022,5.357C57.885,6.05 57.816,6.893 57.816,7.887L57.816,12.098C57.816,12.9 57.862,13.606 57.953,14.217C58.044,14.827 58.181,15.352 58.363,15.789C58.546,16.217 58.764,16.573 59.02,16.855C59.284,17.129 59.585,17.329 59.922,17.457C60.268,17.585 60.647,17.648 61.057,17.648C61.576,17.648 62.037,17.548 62.438,17.348C62.839,17.147 63.176,16.828 63.449,16.391C63.723,15.944 63.928,15.365 64.064,14.654C64.201,13.943 64.27,13.091 64.27,12.098Z" fill="#000000" fill-opacity="0.7"/>
<path d="M8.461,0.025L8.461,20L5.166,20L5.166,3.936L0.285,5.59L0.285,2.869L8.064,0.025L8.461,0.025ZM28.723,17.375L28.723,20L15.379,20L15.379,17.744L21.859,10.676C22.57,9.874 23.131,9.181 23.541,8.598C23.951,8.014 24.238,7.49 24.402,7.025C24.576,6.551 24.662,6.091 24.662,5.645C24.662,5.016 24.544,4.464 24.307,3.99C24.079,3.507 23.742,3.129 23.295,2.855C22.848,2.573 22.306,2.432 21.668,2.432C20.93,2.432 20.31,2.591 19.809,2.91C19.307,3.229 18.929,3.671 18.674,4.236C18.419,4.792 18.291,5.43 18.291,6.15L14.996,6.15C14.996,4.993 15.26,3.936 15.789,2.979C16.318,2.012 17.083,1.247 18.086,0.682C19.089,0.107 20.296,-0.18 21.709,-0.18C23.04,-0.18 24.17,0.044 25.1,0.49C26.029,0.937 26.736,1.57 27.219,2.391C27.711,3.211 27.957,4.182 27.957,5.303C27.957,5.923 27.857,6.538 27.656,7.148C27.456,7.759 27.169,8.37 26.795,8.98C26.43,9.582 25.997,10.188 25.496,10.799C24.995,11.4 24.443,12.011 23.842,12.631L19.535,17.375L28.723,17.375ZM31.525,18.359C31.525,17.849 31.699,17.421 32.045,17.074C32.391,16.719 32.861,16.541 33.453,16.541C34.055,16.541 34.524,16.719 34.861,17.074C35.208,17.421 35.381,17.849 35.381,18.359C35.381,18.87 35.208,19.298 34.861,19.645C34.524,19.991 34.055,20.164 33.453,20.164C32.861,20.164 32.391,19.991 32.045,19.645C31.699,19.298 31.525,18.87 31.525,18.359ZM31.539,6.711C31.539,6.201 31.712,5.772 32.059,5.426C32.405,5.07 32.874,4.893 33.467,4.893C34.068,4.893 34.538,5.07 34.875,5.426C35.221,5.772 35.395,6.201 35.395,6.711C35.395,7.221 35.221,7.65 34.875,7.996C34.538,8.342 34.068,8.516 33.467,8.516C32.874,8.516 32.405,8.342 32.059,7.996C31.712,7.65 31.539,7.221 31.539,6.711ZM42.545,8.557L44.514,8.557C45.279,8.557 45.913,8.424 46.414,8.16C46.925,7.896 47.303,7.531 47.549,7.066C47.795,6.602 47.918,6.068 47.918,5.467C47.918,4.838 47.804,4.3 47.576,3.854C47.357,3.398 47.02,3.047 46.564,2.801C46.118,2.555 45.548,2.432 44.856,2.432C44.272,2.432 43.744,2.55 43.27,2.787C42.805,3.015 42.436,3.343 42.162,3.771C41.889,4.191 41.752,4.692 41.752,5.275L38.443,5.275C38.443,4.218 38.721,3.279 39.277,2.459C39.833,1.639 40.59,0.996 41.547,0.531C42.513,0.057 43.598,-0.18 44.801,-0.18C46.086,-0.18 47.207,0.035 48.164,0.463C49.13,0.882 49.882,1.511 50.42,2.35C50.958,3.188 51.227,4.227 51.227,5.467C51.227,6.032 51.094,6.606 50.83,7.189C50.566,7.773 50.174,8.306 49.654,8.789C49.135,9.263 48.488,9.65 47.713,9.951C46.938,10.243 46.04,10.389 45.02,10.389L42.545,10.389L42.545,8.557ZM42.545,11.127L42.545,9.322L45.02,9.322C46.186,9.322 47.18,9.459 48,9.732C48.829,10.006 49.504,10.384 50.023,10.867C50.543,11.341 50.921,11.883 51.158,12.494C51.404,13.105 51.527,13.752 51.527,14.436C51.527,15.365 51.359,16.195 51.022,16.924C50.693,17.644 50.224,18.255 49.613,18.756C49.003,19.257 48.287,19.635 47.467,19.891C46.656,20.146 45.772,20.274 44.814,20.274C43.958,20.274 43.137,20.155 42.354,19.918C41.57,19.681 40.868,19.33 40.248,18.865C39.628,18.391 39.136,17.803 38.772,17.102C38.416,16.391 38.238,15.57 38.238,14.641L41.533,14.641C41.533,15.233 41.67,15.757 41.943,16.213C42.226,16.66 42.618,17.01 43.119,17.266C43.63,17.521 44.213,17.648 44.869,17.648C45.562,17.648 46.159,17.525 46.66,17.279C47.162,17.033 47.544,16.669 47.809,16.186C48.082,15.702 48.219,15.119 48.219,14.436C48.219,13.661 48.068,13.032 47.768,12.549C47.467,12.066 47.038,11.71 46.482,11.482C45.926,11.245 45.27,11.127 44.514,11.127L42.545,11.127ZM67.564,8.379L67.564,11.633C67.564,13.191 67.41,14.522 67.1,15.625C66.799,16.719 66.361,17.607 65.787,18.291C65.213,18.975 64.525,19.476 63.723,19.795C62.93,20.114 62.041,20.274 61.057,20.274C60.273,20.274 59.544,20.173 58.869,19.973C58.204,19.772 57.602,19.458 57.064,19.029C56.527,18.601 56.066,18.049 55.684,17.375C55.31,16.691 55.018,15.876 54.809,14.928C54.608,13.98 54.508,12.882 54.508,11.633L54.508,8.379C54.508,6.811 54.663,5.49 54.973,4.414C55.283,3.329 55.725,2.45 56.299,1.775C56.873,1.092 57.557,0.595 58.35,0.285C59.152,-0.025 60.045,-0.18 61.029,-0.18C61.822,-0.18 62.551,-0.079 63.217,0.121C63.891,0.313 64.493,0.618 65.022,1.037C65.559,1.456 66.015,2.003 66.389,2.678C66.772,3.343 67.063,4.15 67.264,5.098C67.464,6.036 67.564,7.13 67.564,8.379ZM64.27,12.098L64.27,7.887C64.27,7.094 64.224,6.396 64.133,5.795C64.042,5.184 63.905,4.669 63.723,4.25C63.55,3.822 63.331,3.475 63.066,3.211C62.802,2.937 62.501,2.742 62.164,2.623C61.827,2.495 61.449,2.432 61.029,2.432C60.519,2.432 60.063,2.532 59.662,2.732C59.261,2.924 58.924,3.234 58.65,3.662C58.377,4.09 58.167,4.656 58.022,5.357C57.885,6.05 57.816,6.893 57.816,7.887L57.816,12.098C57.816,12.9 57.862,13.606 57.953,14.217C58.044,14.827 58.181,15.352 58.363,15.789C58.546,16.217 58.764,16.573 59.02,16.855C59.284,17.129 59.585,17.329 59.922,17.457C60.268,17.585 60.647,17.648 61.057,17.648C61.576,17.648 62.037,17.548 62.438,17.348C62.839,17.147 63.176,16.828 63.449,16.391C63.723,15.944 63.928,15.365 64.064,14.654C64.201,13.943 64.27,13.091 64.27,12.098Z" fill="#000000" fill-opacity="0.7"/>
<path d="M8.461,0.025L8.461,20L5.166,20L5.166,3.936L0.285,5.59L0.285,2.869L8.064,0.025L8.461,0.025ZM28.723,17.375L28.723,20L15.379,20L15.379,17.744L21.859,10.676C22.57,9.874 23.131,9.181 23.541,8.598C23.951,8.014 24.238,7.49 24.402,7.025C24.576,6.551 24.662,6.091 24.662,5.645C24.662,5.016 24.544,4.464 24.307,3.99C24.079,3.507 23.742,3.129 23.295,2.855C22.848,2.573 22.306,2.432 21.668,2.432C20.93,2.432 20.31,2.591 19.809,2.91C19.307,3.229 18.929,3.671 18.674,4.236C18.419,4.792 18.291,5.43 18.291,6.15L14.996,6.15C14.996,4.993 15.26,3.936 15.789,2.979C16.318,2.012 17.083,1.247 18.086,0.682C19.089,0.107 20.296,-0.18 21.709,-0.18C23.04,-0.18 24.17,0.044 25.1,0.49C26.029,0.937 26.736,1.57 27.219,2.391C27.711,3.211 27.957,4.182 27.957,5.303C27.957,5.923 27.857,6.538 27.656,7.148C27.456,7.759 27.169,8.37 26.795,8.98C26.43,9.582 25.997,10.188 25.496,10.799C24.995,11.4 24.443,12.011 23.842,12.631L19.535,17.375L28.723,17.375ZM31.525,18.359C31.525,17.849 31.699,17.421 32.045,17.074C32.391,16.719 32.861,16.541 33.453,16.541C34.055,16.541 34.524,16.719 34.861,17.074C35.208,17.421 35.381,17.849 35.381,18.359C35.381,18.87 35.208,19.298 34.861,19.645C34.524,19.991 34.055,20.164 33.453,20.164C32.861,20.164 32.391,19.991 32.045,19.645C31.699,19.298 31.525,18.87 31.525,18.359ZM31.539,6.711C31.539,6.201 31.712,5.772 32.059,5.426C32.405,5.07 32.874,4.893 33.467,4.893C34.068,4.893 34.538,5.07 34.875,5.426C35.221,5.772 35.395,6.201 35.395,6.711C35.395,7.221 35.221,7.65 34.875,7.996C34.538,8.342 34.068,8.516 33.467,8.516C32.874,8.516 32.405,8.342 32.059,7.996C31.712,7.65 31.539,7.221 31.539,6.711ZM42.545,8.557L44.514,8.557C45.279,8.557 45.913,8.424 46.414,8.16C46.925,7.896 47.303,7.531 47.549,7.066C47.795,6.602 47.918,6.068 47.918,5.467C47.918,4.838 47.804,4.3 47.576,3.854C47.357,3.398 47.02,3.047 46.564,2.801C46.118,2.555 45.548,2.432 44.856,2.432C44.272,2.432 43.744,2.55 43.27,2.787C42.805,3.015 42.436,3.343 42.162,3.771C41.889,4.191 41.752,4.692 41.752,5.275L38.443,5.275C38.443,4.218 38.721,3.279 39.277,2.459C39.833,1.639 40.59,0.996 41.547,0.531C42.513,0.057 43.598,-0.18 44.801,-0.18C46.086,-0.18 47.207,0.035 48.164,0.463C49.13,0.882 49.882,1.511 50.42,2.35C50.958,3.188 51.227,4.227 51.227,5.467C51.227,6.032 51.094,6.606 50.83,7.189C50.566,7.773 50.174,8.306 49.654,8.789C49.135,9.263 48.488,9.65 47.713,9.951C46.938,10.243 46.04,10.389 45.02,10.389L42.545,10.389L42.545,8.557ZM42.545,11.127L42.545,9.322L45.02,9.322C46.186,9.322 47.18,9.459 48,9.732C48.829,10.006 49.504,10.384 50.023,10.867C50.543,11.341 50.921,11.883 51.158,12.494C51.404,13.105 51.527,13.752 51.527,14.436C51.527,15.365 51.359,16.195 51.022,16.924C50.693,17.644 50.224,18.255 49.613,18.756C49.003,19.257 48.287,19.635 47.467,19.891C46.656,20.146 45.772,20.274 44.814,20.274C43.958,20.274 43.137,20.155 42.354,19.918C41.57,19.681 40.868,19.33 40.248,18.865C39.628,18.391 39.136,17.803 38.772,17.102C38.416,16.391 38.238,15.57 38.238,14.641L41.533,14.641C41.533,15.233 41.67,15.757 41.943,16.213C42.226,16.66 42.618,17.01 43.119,17.266C43.63,17.521 44.213,17.648 44.869,17.648C45.562,17.648 46.159,17.525 46.66,17.279C47.162,17.033 47.544,16.669 47.809,16.186C48.082,15.702 48.219,15.119 48.219,14.436C48.219,13.661 48.068,13.032 47.768,12.549C47.467,12.066 47.038,11.71 46.482,11.482C45.926,11.245 45.27,11.127 44.514,11.127L42.545,11.127ZM67.564,8.379L67.564,11.633C67.564,13.191 67.41,14.522 67.1,15.625C66.799,16.719 66.361,17.607 65.787,18.291C65.213,18.975 64.525,19.476 63.723,19.795C62.93,20.114 62.041,20.274 61.057,20.274C60.273,20.274 59.544,20.173 58.869,19.973C58.204,19.772 57.602,19.458 57.064,19.029C56.527,18.601 56.066,18.049 55.684,17.375C55.31,16.691 55.018,15.876 54.809,14.928C54.608,13.98 54.508,12.882 54.508,11.633L54.508,8.379C54.508,6.811 54.663,5.49 54.973,4.414C55.283,3.329 55.725,2.45 56.299,1.775C56.873,1.092 57.557,0.595 58.35,0.285C59.152,-0.025 60.045,-0.18 61.029,-0.18C61.822,-0.18 62.551,-0.079 63.217,0.121C63.891,0.313 64.493,0.618 65.022,1.037C65.559,1.456 66.015,2.003 66.389,2.678C66.772,3.343 67.063,4.15 67.264,5.098C67.464,6.036 67.564,7.13 67.564,8.379ZM64.27,12.098L64.27,7.887C64.27,7.094 64.224,6.396 64.133,5.795C64.042,5.184 63.905,4.669 63.723,4.25C63.55,3.822 63.331,3.475 63.066,3.211C62.802,2.937 62.501,2.742 62.164,2.623C61.827,2.495 61.449,2.432 61.029,2.432C60.519,2.432 60.063,2.532 59.662,2.732C59.261,2.924 58.924,3.234 58.65,3.662C58.377,4.09 58.167,4.656 58.022,5.357C57.885,6.05 57.816,6.893 57.816,7.887L57.816,12.098C57.816,12.9 57.862,13.606 57.953,14.217C58.044,14.827 58.181,15.352 58.363,15.789C58.546,16.217 58.764,16.573 59.02,16.855C59.284,17.129 59.585,17.329 59.922,17.457C60.268,17.585 60.647,17.648 61.057,17.648C61.576,17.648 62.037,17.548 62.438,17.348C62.839,17.147 63.176,16.828 63.449,16.391C63.723,15.944 63.928,15.365 64.064,14.654C64.201,13.943 64.27,13.091 64.27,12.098Z" fill="#000000" fill-opacity="0.7"/>
<path d="M8.461,0.025L8.461,20L5.166,20L5.166,3.936L0.285,5.59L0.285,2.869L8.064,0.025L8.461,0.025ZM28.723,17.375L28.723,20L15.379,20L15.379,17.744L21.859,10.676C22.57,9.874 23.131,9.181 23.541,8.598C23.951,8.014 24.238,7.49 24.402,7.025C24.576,6.551 24.662,6.091 24.662,5.645C24.662,5.016 24.544,4.464 24.307,3.99C24.079,3.507 23.742,3.129 23.295,2.855C22.848,2.573 22.306,2.432 21.668,2.432C20.93,2.432 20.31,2.591 19.809,2.91C19.307,3.229 18.929,3.671 18.674,4.236C18.419,4.792 18.291,5.43 18.291,6.15L14.996,6.15C14.996,4.993 15.26,3.936 15.789,2.979C16.318,2.012 17.083,1.247 18.086,0.682C19.089,0.107 20.296,-0.18 21.709,-0.18C23.04,-0.18 24.17,0.044 25.1,0.49C26.029,0.937 26.736,1.57 27.219,2.391C27.711,3.211 27.957,4.182 27.957,5.303C27.957,5.923 27.857,6.538 27.656,7.148C27.456,7.759 27.169,8.37 26.795,8.98C26.43,9.582 25.997,10.188 25.496,10.799C24.995,11.4 24.443,12.011 23.842,12.631L19.535,17.375L28.723,17.375ZM31.525,18.359C31.525,17.849 31.699,17.421 32.045,17.074C32.391,16.719 32.861,16.541 33.453,16.541C34.055,16.541 34.524,16.719 34.861,17.074C35.208,17.421 35.381,17.849 35.381,18.359C35.381,18.87 35.208,19.298 34.861,19.645C34.524,19.991 34.055,20.164 33.453,20.164C32.861,20.164 32.391,19.991 32.045,19.645C31.699,19.298 31.525,18.87 31.525,18.359ZM31.539,6.711C31.539,6.201 31.712,5.772 32.059,5.426C32.405,5.07 32.874,4.893 33.467,4.893C34.068,4.893 34.538,5.07 34.875,5.426C35.221,5.772 35.395,6.201 35.395,6.711C35.395,7.221 35.221,7.65 34.875,7.996C34.538,8.342 34.068,8.516 33.467,8.516C32.874,8.516 32.405,8.342 32.059,7.996C31.712,7.65 31.539,7.221 31.539,6.711ZM42.545,8.557L44.514,8.557C45.279,8.557 45.913,8.424 46.414,8.16C46.925,7.896 47.303,7.531 47.549,7.066C47.795,6.602 47.918,6.068 47.918,5.467C47.918,4.838 47.804,4.3 47.576,3.854C47.357,3.398 47.02,3.047 46.564,2.801C46.118,2.555 45.548,2.432 44.856,2.432C44.272,2.432 43.744,2.55 43.27,2.787C42.805,3.015 42.436,3.343 42.162,3.771C41.889,4.191 41.752,4.692 41.752,5.275L38.443,5.275C38.443,4.218 38.721,3.279 39.277,2.459C39.833,1.639 40.59,0.996 41.547,0.531C42.513,0.057 43.598,-0.18 44.801,-0.18C46.086,-0.18 47.207,0.035 48.164,0.463C49.13,0.882 49.882,1.511 50.42,2.35C50.958,3.188 51.227,4.227 51.227,5.467C51.227,6.032 51.094,6.606 50.83,7.189C50.566,7.773 50.174,8.306 49.654,8.789C49.135,9.263 48.488,9.65 47.713,9.951C46.938,10.243 46.04,10.389 45.02,10.389L42.545,10.389L42.545,8.557ZM42.545,11.127L42.545,9.322L45.02,9.322C46.186,9.322 47.18,9.459 48,9.732C48.829,10.006 49.504,10.384 50.023,10.867C50.543,11.341 50.921,11.883 51.158,12.494C51.404,13.105 51.527,13.752 51.527,14.436C51.527,15.365 51.359,16.195 51.022,16.924C50.693,17.644 50.224,18.255 49.613,18.756C49.003,19.257 48.287,19.635 47.467,19.891C46.656,20.146 45.772,20.274 44.814,20.274C43.958,20.274 43.137,20.155 42.354,19.918C41.57,19.681 40.868,19.33 40.248,18.865C39.628,18.391 39.136,17.803 38.772,17.102C38.416,16.391 38.238,15.57 38.238,14.641L41.533,14.641C41.533,15.233 41.67,15.757 41.943,16.213C42.226,16.66 42.618,17.01 43.119,17.266C43.63,17.521 44.213,17.648 44.869,17.648C45.562,17.648 46.159,17.525 46.66,17.279C47.162,17.033 47.544,16.669 47.809,16.186C48.082,15.702 48.219,15.119 48.219,14.436C48.219,13.661 48.068,13.032 47.768,12.549C47.467,12.066 47.038,11.71 46.482,11.482C45.926,11.245 45.27,11.127 44.514,11.127L42.545,11.127ZM67.564,8.379L67.564,11.633C67.564,13.191 67.41,14.522 67.1,15.625C66.799,16.719 66.361,17.607 65.787,18.291C65.213,18.975 64.525,19.476 63.723,19.795C62.93,20.114 62.041,20.274 61.057,20.274C60.273,20.274 59.544,20.173 58.869,19.973C58.204,19.772 57.602,19.458 57.064,19.029C56.527,18.601 56.066,18.049 55.684,17.375C55.31,16.691 55.018,15.876 54.809,14.928C54.608,13.98 54.508,12.882 54.508,11.633L54.508,8.379C54.508,6.811 54.663,5.49 54.973,4.414C55.283,3.329 55.725,2.45 56.299,1.775C56.873,1.092 57.557,0.595 58.35,0.285C59.152,-0.025 60.045,-0.18 61.029,-0.18C61.822,-0.18 62.551,-0.079 63.217,0.121C63.891,0.313 64.493,0.618 65.022,1.037C65.559,1.456 66.015,2.003 66.389,2.678C66.772,3.343 67.063,4.15 67.264,5.098C67.464,6.036 67.564,7.13 67.564,8.379ZM64.27,12.098L64.27,7.887C64.27,7.094 64.224,6.396 64.133,5.795C64.042,5.184 63.905,4.669 63.723,4.25C63.55,3.822 63.331,3.475 63.066,3.211C62.802,2.937 62.501,2.742 62.164,2.623C61.827,2.495 61.449,2.432 61.029,2.432C60.519,2.432 60.063,2.532 59.662,2.732C59.261,2.924 58.924,3.234 58.65,3.662C58.377,4.09 58.167,4.656 58.022,5.357C57.885,6.05 57.816,6.893 57.816,7.887L57.816,12.098C57.816,12.9 57.862,13.606 57.953,14.217C58.044,14.827 58.181,15.352 58.363,15.789C58.546,16.217 58.764,16.573 59.02,16.855C59.284,17.129 59.585,17.329 59.922,17.457C60.268,17.585 60.647,17.648 61.057,17.648C61.576,17.648 62.037,17.548 62.438,17.348C62.839,17.147 63.176,16.828 63.449,16.391C63.723,15.944 63.928,15.365 64.064,14.654C64.201,13.943 64.27,13.091 64.27,12.098Z" fill="#000000" fill-opacity="0.7"/>
<path d="M8.461,0.025L8.461,20L5.166,20L5.166,3.936L0.285,5.59L0.285,2.869L8.064,0.025L8.461,0.025ZM28.723,17.375L28.723,20L15.379,20L15.379,17.744L21.859,10.676C22.57,9.874 23.131,9.181 23.541,8.598C23.951,8.014 24.238,7.49 24.402,7.025C24.576,6.551 24.662,6.091 24.662,5.645C24.662,5.016 24.544,4.464 24.307,3.99C24.079,3.507 23.742,3.129 23.295,2.855C22.848,2.573 22.306,2.432 21.668,2.432C20.93,2.432 20.31,2.591 19.809,2.91C19.307,3.229 18.929,3.671 18.674,4.236C18.419,4.792 18.291,5.43 18.291,6.15L14.996,6.15C14.996,4.993 15.26,3.936 15.789,2.979C16.318,2.012 17.083,1.247 18.086,0.682C19.089,0.107 20.296,-0.18 21.709,-0.18C23.04,-0.18 24.17,0.044 25.1,0.49C26.029,0.937 26.736,1.57 27.219,2.391C27.711,3.211 27.957,4.182 27.957,5.303C27.957,5.923 27.857,6.538 27.656,7.148C27.456,7.759 27.169,8.37 26.795,8.98C26.43,9.582 25.997,10.188 25.496,10.799C24.995,11.4 24.443,12.011 23.842,12.631L19.535,17.375L28.723,17.375ZM31.525,18.359C31.525,17.849 31.699,17.421 32.045,17.074C32.391,16.719 32.861,16.541 33.453,16.541C34.055,16.541 34.524,16.719 34.861,17.074C35.208,17.421 35.381,17.849 35.381,18.359C35.381,18.87 35.208,19.298 34.861,19.645C34.524,19.991 34.055,20.164 33.453,20.164C32.861,20.164 32.391,19.991 32.045,19.645C31.699,19.298 31.525,18.87 31.525,18.359ZM31.539,6.711C31.539,6.201 31.712,5.772 32.059,5.426C32.405,5.07 32.874,4.893 33.467,4.893C34.068,4.893 34.538,5.07 34.875,5.426C35.221,5.772 35.395,6.201 35.395,6.711C35.395,7.221 35.221,7.65 34.875,7.996C34.538,8.342 34.068,8.516 33.467,8.516C32.874,8.516 32.405,8.342 32.059,7.996C31.712,7.65 31.539,7.221 31.539,6.711ZM42.545,8.557L44.514,8.557C45.279,8.557 45.913,8.424 46.414,8.16C46.925,7.896 47.303,7.531 47.549,7.066C47.795,6.602 47.918,6.068 47.918,5.467C47.918,4.838 47.804,4.3 47.576,3.854C47.357,3.398 47.02,3.047 46.564,2.801C46.118,2.555 45.548,2.432 44.856,2.432C44.272,2.432 43.744,2.55 43.27,2.787C42.805,3.015 42.436,3.343 42.162,3.771C41.889,4.191 41.752,4.692 41.752,5.275L38.443,5.275C38.443,4.218 38.721,3.279 39.277,2.459C39.833,1.639 40.59,0.996 41.547,0.531C42.513,0.057 43.598,-0.18 44.801,-0.18C46.086,-0.18 47.207,0.035 48.164,0.463C49.13,0.882 49.882,1.511 50.42,2.35C50.958,3.188 51.227,4.227 51.227,5.467C51.227,6.032 51.094,6.606 50.83,7.189C50.566,7.773 50.174,8.306 49.654,8.789C49.135,9.263 48.488,9.65 47.713,9.951C46.938,10.243 46.04,10.389 45.02,10.389L42.545,10.389L42.545,8.557ZM42.545,11.127L42.545,9.322L45.02,9.322C46.186,9.322 47.18,9.459 48,9.732C48.829,10.006 49.504,10.384 50.023,10.867C50.543,11.341 50.921,11.883 51.158,12.494C51.404,13.105 51.527,13.752 51.527,14.436C51.527,15.365 51.359,16.195 51.022,16.924C50.693,17.644 50.224,18.255 49.613,18.756C49.003,19.257 48.287,19.635 47.467,19.891C46.656,20.146 45.772,20.274 44.814,20.274C43.958,20.274 43.137,20.155 42.354,19.918C41.57,19.681 40.868,19.33 40.248,18.865C39.628,18.391 39.136,17.803 38.772,17.102C38.416,16.391 38.238,15.57 38.238,14.641L41.533,14.641C41.533,15.233 41.67,15.757 41.943,16.213C42.226,16.66 42.618,17.01 43.119,17.266C43.63,17.521 44.213,17.648 44.869,17.648C45.562,17.648 46.159,17.525 46.66,17.279C47.162,17.033 47.544,16.669 47.809,16.186C48.082,15.702 48.219,15.119 48.219,14.436C48.219,13.661 48.068,13.032 47.768,12.549C47.467,12.066 47.038,11.71 46.482,11.482C45.926,11.245 45.27,11.127 44.514,11.127L42.545,11.127ZM67.564,8.379L67.564,11.633C67.564,13.191 67.41,14.522 67.1,15.625C66.799,16.719 66.361,17.607 65.787,18.291C65.213,18.975 64.525,19.476 63.723,19.795C62.93,20.114 62.041,20.274 61.057,20.274C60.273,20.274 59.544,20.173 58.869,19.973C58.204,19.772 57.602,19.458 57.064,19.029C56.527,18.601 56.066,18.049 55.684,17.375C55.31,16.691 55.018,15.876 54.809,14.928C54.608,13.98 54.508,12.882 54.508,11.633L54.508,8.379C54.508,6.811 54.663,5.49 54.973,4.414C55.283,3.329 55.725,2.45 56.299,1.775C56.873,1.092 57.557,0.595 58.35,0.285C59.152,-0.025 60.045,-0.18 61.029,-0.18C61.822,-0.18 62.551,-0.079 63.217,0.121C63.891,0.313 64.493,0.618 65.022,1.037C65.559,1.456 66.015,2.003 66.389,2.678C66.772,3.343 67.063,4.15 67.264,5.098C67.464,6.036 67.564,7.13 67.564,8.379ZM64.27,12.098L64.27,7.887C64.27,7.094 64.224,6.396 64.133,5.795C64.042,5.184 63.905,4.669 63.723,4.25C63.55,3.822 63.331,3.475 63.066,3.211C62.802,2.937 62.501,2.742 62.164,2.623C61.827,2.495 61.449,2.432 61.029,2.432C60.519,2.432 60.063,2.532 59.662,2.732C59.261,2.924 58.924,3.234 58.65,3.662C58.377,4.09 58.167,4.656 58.022,5.357C57.885,6.05 57.816,6.893 57.816,7.887L57.816,12.098C57.816,12.9 57.862,13.606 57.953,14.217C58.044,14.827 58.181,15.352 58.363,15.789C58.546,16.217 58.764,16.573 59.02,16.855C59.284,17.129 59.585,17.329 59.922,17.457C60.268,17.585 60.647,17.648 61.057,17.648C61.576,17.648 62.037,17.548 62.438,17.348C62.839,17.147 63.176,16.828 63.449,16.391C63.723,15.944 63.928,15.365 64.064,14.654C64.201,13.943 64.27,13.091 64.27,12.098Z" fill="#000000" fill-opacity="0.7"/>
</svg>
