<svg width="116" height="20" viewBox="0 0 116 20" fill="none" xmlns="http://www.w3.org/2000/svg" xmlns:xlink="http://www.w3.org/1999/xlink">
<path d="M8.838,0.746C9.205,0.003 10.265,0.003 10.632,0.746L13.029,5.603C13.175,5.899 13.456,6.103 13.782,6.15L19.143,6.929C19.963,7.049 20.29,8.057 19.697,8.635L15.818,12.416C15.582,12.646 15.475,12.977 15.53,13.301L16.446,18.64C16.586,19.457 15.729,20.08 14.995,19.694L10.201,17.174C9.909,17.02 9.561,17.02 9.27,17.174L4.475,19.694C3.742,20.08 2.884,19.457 3.024,18.64L3.94,13.301C3.996,12.977 3.888,12.646 3.652,12.416L-0.227,8.635C-0.82,8.057 -0.493,7.049 0.328,6.929L5.688,6.15C6.014,6.103 6.295,5.899 6.441,5.603L8.838,0.746ZM32.838,0.746C33.205,0.003 34.265,0.003 34.632,0.746L37.029,5.603C37.175,5.899 37.456,6.103 37.782,6.15L43.143,6.929C43.963,7.049 44.29,8.057 43.697,8.635L39.818,12.416C39.582,12.646 39.475,12.977 39.53,13.301L40.446,18.64C40.586,19.457 39.729,20.08 38.995,19.694L34.201,17.174C33.909,17.02 33.561,17.02 33.27,17.174L28.475,19.694C27.742,20.08 26.884,19.457 27.024,18.64L27.94,13.301C27.996,12.977 27.888,12.646 27.652,12.416L23.773,8.635C23.18,8.057 23.507,7.049 24.328,6.929L29.688,6.15C30.014,6.103 30.296,5.899 30.441,5.603L32.838,0.746ZM56.838,0.746C57.205,0.003 58.265,0.003 58.632,0.746L61.029,5.603C61.175,5.899 61.456,6.103 61.782,6.15L67.143,6.929C67.963,7.049 68.29,8.057 67.697,8.635L63.818,12.416C63.582,12.646 63.475,12.977 63.53,13.301L64.446,18.64C64.586,19.457 63.729,20.08 62.995,19.694L58.201,17.174C57.909,17.02 57.561,17.02 57.27,17.174L52.475,19.694C51.742,20.08 50.884,19.457 51.024,18.64L51.94,13.301C51.996,12.977 51.888,12.646 51.652,12.416L47.773,8.635C47.18,8.057 47.507,7.049 48.328,6.929L53.688,6.15C54.014,6.103 54.296,5.899 54.441,5.603L56.838,0.746ZM80.838,0.746C81.205,0.003 82.265,0.003 82.632,0.746L85.029,5.603C85.175,5.899 85.456,6.103 85.782,6.15L91.143,6.929C91.963,7.049 92.29,8.057 91.697,8.635L87.818,12.416C87.582,12.646 87.475,12.977 87.53,13.301L88.446,18.64C88.586,19.457 87.729,20.08 86.995,19.694L82.201,17.174C81.909,17.02 81.561,17.02 81.27,17.174L76.475,19.694C75.742,20.08 74.884,19.457 75.024,18.64L75.94,13.301C75.996,12.977 75.888,12.646 75.652,12.416L71.773,8.635C71.18,8.057 71.507,7.049 72.328,6.929L77.688,6.15C78.014,6.103 78.296,5.899 78.441,5.603L80.838,0.746ZM104.838,0.746C105.205,0.003 106.265,0.003 106.632,0.746L109.029,5.603C109.175,5.899 109.456,6.103 109.782,6.15L115.143,6.929C115.963,7.049 116.29,8.057 115.697,8.635L111.818,12.416C111.582,12.646 111.475,12.977 111.53,13.301L112.446,18.64C112.586,19.457 111.729,20.08 110.995,19.694L106.201,17.174C105.909,17.02 105.561,17.02 105.27,17.174L100.475,19.694C99.742,20.08 98.884,19.457 99.024,18.64L99.94,13.301C99.996,12.977 99.888,12.646 99.652,12.416L95.773,8.635C95.18,8.057 95.507,7.049 96.328,6.929L101.688,6.15C102.014,6.103 102.296,5.899 102.441,5.603L104.838,0.746Z" fill="#FFC700"/>
<path d="M8.838,0.746C9.205,0.003 10.265,0.003 10.632,0.746L13.029,5.603C13.175,5.899 13.456,6.103 13.782,6.15L19.143,6.929C19.963,7.049 20.29,8.057 19.697,8.635L15.818,12.416C15.582,12.646 15.475,12.977 15.53,13.301L16.446,18.64C16.586,19.457 15.729,20.08 14.995,19.694L10.201,17.174C9.909,17.02 9.561,17.02 9.27,17.174L4.475,19.694C3.742,20.08 2.884,19.457 3.024,18.64L3.94,13.301C3.996,12.977 3.888,12.646 3.652,12.416L-0.227,8.635C-0.82,8.057 -0.493,7.049 0.328,6.929L5.688,6.15C6.014,6.103 6.295,5.899 6.441,5.603L8.838,0.746ZM32.838,0.746C33.205,0.003 34.265,0.003 34.632,0.746L37.029,5.603C37.175,5.899 37.456,6.103 37.782,6.15L43.143,6.929C43.963,7.049 44.29,8.057 43.697,8.635L39.818,12.416C39.582,12.646 39.475,12.977 39.53,13.301L40.446,18.64C40.586,19.457 39.729,20.08 38.995,19.694L34.201,17.174C33.909,17.02 33.561,17.02 33.27,17.174L28.475,19.694C27.742,20.08 26.884,19.457 27.024,18.64L27.94,13.301C27.996,12.977 27.888,12.646 27.652,12.416L23.773,8.635C23.18,8.057 23.507,7.049 24.328,6.929L29.688,6.15C30.014,6.103 30.296,5.899 30.441,5.603L32.838,0.746ZM56.838,0.746C57.205,0.003 58.265,0.003 58.632,0.746L61.029,5.603C61.175,5.899 61.456,6.103 61.782,6.15L67.143,6.929C67.963,7.049 68.29,8.057 67.697,8.635L63.818,12.416C63.582,12.646 63.475,12.977 63.53,13.301L64.446,18.64C64.586,19.457 63.729,20.08 62.995,19.694L58.201,17.174C57.909,17.02 57.561,17.02 57.27,17.174L52.475,19.694C51.742,20.08 50.884,19.457 51.024,18.64L51.94,13.301C51.996,12.977 51.888,12.646 51.652,12.416L47.773,8.635C47.18,8.057 47.507,7.049 48.328,6.929L53.688,6.15C54.014,6.103 54.296,5.899 54.441,5.603L56.838,0.746ZM80.838,0.746C81.205,0.003 82.265,0.003 82.632,0.746L85.029,5.603C85.175,5.899 85.456,6.103 85.782,6.15L91.143,6.929C91.963,7.049 92.29,8.057 91.697,8.635L87.818,12.416C87.582,12.646 87.475,12.977 87.53,13.301L88.446,18.64C88.586,19.457 87.729,20.08 86.995,19.694L82.201,17.174C81.909,17.02 81.561,17.02 81.27,17.174L76.475,19.694C75.742,20.08 74.884,19.457 75.024,18.64L75.94,13.301C75.996,12.977 75.888,12.646 75.652,12.416L71.773,8.635C71.18,8.057 71.507,7.049 72.328,6.929L77.688,6.15C78.014,6.103 78.296,5.899 78.441,5.603L80.838,0.746ZM104.838,0.746C105.205,0.003 106.265,0.003 106.632,0.746L109.029,5.603C109.175,5.899 109.456,6.103 109.782,6.15L115.143,6.929C115.963,7.049 116.29,8.057 115.697,8.635L111.818,12.416C111.582,12.646 111.475,12.977 111.53,13.301L112.446,18.64C112.586,19.457 111.729,20.08 110.995,19.694L106.201,17.174C105.909,17.02 105.561,17.02 105.27,17.174L100.475,19.694C99.742,20.08 98.884,19.457 99.024,18.64L99.94,13.301C99.996,12.977 99.888,12.646 99.652,12.416L95.773,8.635C95.18,8.057 95.507,7.049 96.328,6.929L101.688,6.15C102.014,6.103 102.296,5.899 102.441,5.603L104.838,0.746Z" fill="#FFC700"/>
<path d="M8.838,0.746C9.205,0.003 10.265,0.003 10.632,0.746L13.029,5.603C13.175,5.899 13.456,6.103 13.782,6.15L19.143,6.929C19.963,7.049 20.29,8.057 19.697,8.635L15.818,12.416C15.582,12.646 15.475,12.977 15.53,13.301L16.446,18.64C16.586,19.457 15.729,20.08 14.995,19.694L10.201,17.174C9.909,17.02 9.561,17.02 9.27,17.174L4.475,19.694C3.742,20.08 2.884,19.457 3.024,18.64L3.94,13.301C3.996,12.977 3.888,12.646 3.652,12.416L-0.227,8.635C-0.82,8.057 -0.493,7.049 0.328,6.929L5.688,6.15C6.014,6.103 6.295,5.899 6.441,5.603L8.838,0.746ZM32.838,0.746C33.205,0.003 34.265,0.003 34.632,0.746L37.029,5.603C37.175,5.899 37.456,6.103 37.782,6.15L43.143,6.929C43.963,7.049 44.29,8.057 43.697,8.635L39.818,12.416C39.582,12.646 39.475,12.977 39.53,13.301L40.446,18.64C40.586,19.457 39.729,20.08 38.995,19.694L34.201,17.174C33.909,17.02 33.561,17.02 33.27,17.174L28.475,19.694C27.742,20.08 26.884,19.457 27.024,18.64L27.94,13.301C27.996,12.977 27.888,12.646 27.652,12.416L23.773,8.635C23.18,8.057 23.507,7.049 24.328,6.929L29.688,6.15C30.014,6.103 30.296,5.899 30.441,5.603L32.838,0.746ZM56.838,0.746C57.205,0.003 58.265,0.003 58.632,0.746L61.029,5.603C61.175,5.899 61.456,6.103 61.782,6.15L67.143,6.929C67.963,7.049 68.29,8.057 67.697,8.635L63.818,12.416C63.582,12.646 63.475,12.977 63.53,13.301L64.446,18.64C64.586,19.457 63.729,20.08 62.995,19.694L58.201,17.174C57.909,17.02 57.561,17.02 57.27,17.174L52.475,19.694C51.742,20.08 50.884,19.457 51.024,18.64L51.94,13.301C51.996,12.977 51.888,12.646 51.652,12.416L47.773,8.635C47.18,8.057 47.507,7.049 48.328,6.929L53.688,6.15C54.014,6.103 54.296,5.899 54.441,5.603L56.838,0.746ZM80.838,0.746C81.205,0.003 82.265,0.003 82.632,0.746L85.029,5.603C85.175,5.899 85.456,6.103 85.782,6.15L91.143,6.929C91.963,7.049 92.29,8.057 91.697,8.635L87.818,12.416C87.582,12.646 87.475,12.977 87.53,13.301L88.446,18.64C88.586,19.457 87.729,20.08 86.995,19.694L82.201,17.174C81.909,17.02 81.561,17.02 81.27,17.174L76.475,19.694C75.742,20.08 74.884,19.457 75.024,18.64L75.94,13.301C75.996,12.977 75.888,12.646 75.652,12.416L71.773,8.635C71.18,8.057 71.507,7.049 72.328,6.929L77.688,6.15C78.014,6.103 78.296,5.899 78.441,5.603L80.838,0.746ZM104.838,0.746C105.205,0.003 106.265,0.003 106.632,0.746L109.029,5.603C109.175,5.899 109.456,6.103 109.782,6.15L115.143,6.929C115.963,7.049 116.29,8.057 115.697,8.635L111.818,12.416C111.582,12.646 111.475,12.977 111.53,13.301L112.446,18.64C112.586,19.457 111.729,20.08 110.995,19.694L106.201,17.174C105.909,17.02 105.561,17.02 105.27,17.174L100.475,19.694C99.742,20.08 98.884,19.457 99.024,18.64L99.94,13.301C99.996,12.977 99.888,12.646 99.652,12.416L95.773,8.635C95.18,8.057 95.507,7.049 96.328,6.929L101.688,6.15C102.014,6.103 102.296,5.899 102.441,5.603L104.838,0.746Z" fill="#FFC700"/>
<path d="M8.838,0.746C9.205,0.003 10.265,0.003 10.632,0.746L13.029,5.603C13.175,5.899 13.456,6.103 13.782,6.15L19.143,6.929C19.963,7.049 20.29,8.057 19.697,8.635L15.818,12.416C15.582,12.646 15.475,12.977 15.53,13.301L16.446,18.64C16.586,19.457 15.729,20.08 14.995,19.694L10.201,17.174C9.909,17.02 9.561,17.02 9.27,17.174L4.475,19.694C3.742,20.08 2.884,19.457 3.024,18.64L3.94,13.301C3.996,12.977 3.888,12.646 3.652,12.416L-0.227,8.635C-0.82,8.057 -0.493,7.049 0.328,6.929L5.688,6.15C6.014,6.103 6.295,5.899 6.441,5.603L8.838,0.746ZM32.838,0.746C33.205,0.003 34.265,0.003 34.632,0.746L37.029,5.603C37.175,5.899 37.456,6.103 37.782,6.15L43.143,6.929C43.963,7.049 44.29,8.057 43.697,8.635L39.818,12.416C39.582,12.646 39.475,12.977 39.53,13.301L40.446,18.64C40.586,19.457 39.729,20.08 38.995,19.694L34.201,17.174C33.909,17.02 33.561,17.02 33.27,17.174L28.475,19.694C27.742,20.08 26.884,19.457 27.024,18.64L27.94,13.301C27.996,12.977 27.888,12.646 27.652,12.416L23.773,8.635C23.18,8.057 23.507,7.049 24.328,6.929L29.688,6.15C30.014,6.103 30.296,5.899 30.441,5.603L32.838,0.746ZM56.838,0.746C57.205,0.003 58.265,0.003 58.632,0.746L61.029,5.603C61.175,5.899 61.456,6.103 61.782,6.15L67.143,6.929C67.963,7.049 68.29,8.057 67.697,8.635L63.818,12.416C63.582,12.646 63.475,12.977 63.53,13.301L64.446,18.64C64.586,19.457 63.729,20.08 62.995,19.694L58.201,17.174C57.909,17.02 57.561,17.02 57.27,17.174L52.475,19.694C51.742,20.08 50.884,19.457 51.024,18.64L51.94,13.301C51.996,12.977 51.888,12.646 51.652,12.416L47.773,8.635C47.18,8.057 47.507,7.049 48.328,6.929L53.688,6.15C54.014,6.103 54.296,5.899 54.441,5.603L56.838,0.746ZM80.838,0.746C81.205,0.003 82.265,0.003 82.632,0.746L85.029,5.603C85.175,5.899 85.456,6.103 85.782,6.15L91.143,6.929C91.963,7.049 92.29,8.057 91.697,8.635L87.818,12.416C87.582,12.646 87.475,12.977 87.53,13.301L88.446,18.64C88.586,19.457 87.729,20.08 86.995,19.694L82.201,17.174C81.909,17.02 81.561,17.02 81.27,17.174L76.475,19.694C75.742,20.08 74.884,19.457 75.024,18.64L75.94,13.301C75.996,12.977 75.888,12.646 75.652,12.416L71.773,8.635C71.18,8.057 71.507,7.049 72.328,6.929L77.688,6.15C78.014,6.103 78.296,5.899 78.441,5.603L80.838,0.746ZM104.838,0.746C105.205,0.003 106.265,0.003 106.632,0.746L109.029,5.603C109.175,5.899 109.456,6.103 109.782,6.15L115.143,6.929C115.963,7.049 116.29,8.057 115.697,8.635L111.818,12.416C111.582,12.646 111.475,12.977 111.53,13.301L112.446,18.64C112.586,19.457 111.729,20.08 110.995,19.694L106.201,17.174C105.909,17.02 105.561,17.02 105.27,17.174L100.475,19.694C99.742,20.08 98.884,19.457 99.024,18.64L99.94,13.301C99.996,12.977 99.888,12.646 99.652,12.416L95.773,8.635C95.18,8.057 95.507,7.049 96.328,6.929L101.688,6.15C102.014,6.103 102.296,5.899 102.441,5.603L104.838,0.746Z" fill="#FFC700"/>
<path d="M8.838,0.746C9.205,0.003 10.265,0.003 10.632,0.746L13.029,5.603C13.175,5.899 13.456,6.103 13.782,6.15L19.143,6.929C19.963,7.049 20.29,8.057 19.697,8.635L15.818,12.416C15.582,12.646 15.475,12.977 15.53,13.301L16.446,18.64C16.586,19.457 15.729,20.08 14.995,19.694L10.201,17.174C9.909,17.02 9.561,17.02 9.27,17.174L4.475,19.694C3.742,20.08 2.884,19.457 3.024,18.64L3.94,13.301C3.996,12.977 3.888,12.646 3.652,12.416L-0.227,8.635C-0.82,8.057 -0.493,7.049 0.328,6.929L5.688,6.15C6.014,6.103 6.295,5.899 6.441,5.603L8.838,0.746ZM32.838,0.746C33.205,0.003 34.265,0.003 34.632,0.746L37.029,5.603C37.175,5.899 37.456,6.103 37.782,6.15L43.143,6.929C43.963,7.049 44.29,8.057 43.697,8.635L39.818,12.416C39.582,12.646 39.475,12.977 39.53,13.301L40.446,18.64C40.586,19.457 39.729,20.08 38.995,19.694L34.201,17.174C33.909,17.02 33.561,17.02 33.27,17.174L28.475,19.694C27.742,20.08 26.884,19.457 27.024,18.64L27.94,13.301C27.996,12.977 27.888,12.646 27.652,12.416L23.773,8.635C23.18,8.057 23.507,7.049 24.328,6.929L29.688,6.15C30.014,6.103 30.296,5.899 30.441,5.603L32.838,0.746ZM56.838,0.746C57.205,0.003 58.265,0.003 58.632,0.746L61.029,5.603C61.175,5.899 61.456,6.103 61.782,6.15L67.143,6.929C67.963,7.049 68.29,8.057 67.697,8.635L63.818,12.416C63.582,12.646 63.475,12.977 63.53,13.301L64.446,18.64C64.586,19.457 63.729,20.08 62.995,19.694L58.201,17.174C57.909,17.02 57.561,17.02 57.27,17.174L52.475,19.694C51.742,20.08 50.884,19.457 51.024,18.64L51.94,13.301C51.996,12.977 51.888,12.646 51.652,12.416L47.773,8.635C47.18,8.057 47.507,7.049 48.328,6.929L53.688,6.15C54.014,6.103 54.296,5.899 54.441,5.603L56.838,0.746ZM80.838,0.746C81.205,0.003 82.265,0.003 82.632,0.746L85.029,5.603C85.175,5.899 85.456,6.103 85.782,6.15L91.143,6.929C91.963,7.049 92.29,8.057 91.697,8.635L87.818,12.416C87.582,12.646 87.475,12.977 87.53,13.301L88.446,18.64C88.586,19.457 87.729,20.08 86.995,19.694L82.201,17.174C81.909,17.02 81.561,17.02 81.27,17.174L76.475,19.694C75.742,20.08 74.884,19.457 75.024,18.64L75.94,13.301C75.996,12.977 75.888,12.646 75.652,12.416L71.773,8.635C71.18,8.057 71.507,7.049 72.328,6.929L77.688,6.15C78.014,6.103 78.296,5.899 78.441,5.603L80.838,0.746ZM104.838,0.746C105.205,0.003 106.265,0.003 106.632,0.746L109.029,5.603C109.175,5.899 109.456,6.103 109.782,6.15L115.143,6.929C115.963,7.049 116.29,8.057 115.697,8.635L111.818,12.416C111.582,12.646 111.475,12.977 111.53,13.301L112.446,18.64C112.586,19.457 111.729,20.08 110.995,19.694L106.201,17.174C105.909,17.02 105.561,17.02 105.27,17.174L100.475,19.694C99.742,20.08 98.884,19.457 99.024,18.64L99.94,13.301C99.996,12.977 99.888,12.646 99.652,12.416L95.773,8.635C95.18,8.057 95.507,7.049 96.328,6.929L101.688,6.15C102.014,6.103 102.296,5.899 102.441,5.603L104.838,0.746Z" fill="#FFC700"/>
</svg>
