<svg width="28" height="28" viewBox="0 0 28 28" fill="none" xmlns="http://www.w3.org/2000/svg">
    <path d="M14.14 14.91C14.0583 14.8983 13.9533 14.8983 13.86 14.91C11.8067 14.84 10.1733 13.16 10.1733 11.095C10.1733 8.98331 11.8767 7.26831 14 7.26831C16.1117 7.26831 17.8267 8.98331 17.8267 11.095C17.815 13.16 16.1933 14.84 14.14 14.91Z" stroke="#0C0507" stroke-width="1.5" stroke-linecap="round" stroke-linejoin="round"/>
    <path d="M21.8634 22.6101C19.7867 24.5117 17.0334 25.6667 14.0001 25.6667C10.9667 25.6667 8.21339 24.5117 6.13672 22.6101C6.25339 21.5134 6.95339 20.4401 8.20172 19.6001C11.3984 17.4767 16.6251 17.4767 19.7984 19.6001C21.0467 20.4401 21.7467 21.5134 21.8634 22.6101Z" stroke="#0C0507" stroke-width="1.5" stroke-linecap="round" stroke-linejoin="round"/>
    <path d="M13.9999 25.6666C20.4432 25.6666 25.6666 20.4432 25.6666 13.9999C25.6666 7.5566 20.4432 2.33325 13.9999 2.33325C7.5566 2.33325 2.33325 7.5566 2.33325 13.9999C2.33325 20.4432 7.5566 25.6666 13.9999 25.6666Z" stroke="#0C0507" stroke-width="1.5" stroke-linecap="round" stroke-linejoin="round"/>
</svg>
